<?xml version="1.0" encoding="UTF-8"?>
<svg version="1.1" xmlns="http://www.w3.org/2000/svg" width="1119" height="1119">
<path d="M0 0 C369.27 0 738.54 0 1119 0 C1119 369.27 1119 738.54 1119 1119 C749.73 1119 380.46 1119 0 1119 C0 749.73 0 380.46 0 0 Z " fill="#F0F0F0" transform="translate(0,0)"/>
<path d="M0 0 C8.54572328 -0.04657127 17.09139253 -0.08199411 25.6372118 -0.10362434 C29.60641308 -0.11401164 33.57552682 -0.12807714 37.54467773 -0.15087891 C41.38317906 -0.1727893 45.22159678 -0.18460652 49.06015587 -0.18975449 C50.51639813 -0.19341788 51.9726364 -0.20057041 53.42884254 -0.21146011 C64.89797863 -0.29372892 75.65884764 0.12302552 86 5.5 C86.67861084 5.84893311 87.35722168 6.19786621 88.05639648 6.55737305 C100.41194781 13.20339445 109.62526992 23.44331116 114.38916016 36.71972656 C117.22146435 47.2927566 116.87126432 60.73171272 111.5 70.375 C110.09653242 72.68778721 108.60351152 74.80862625 107 77 C106.36449219 77.87914062 105.72898437 78.75828125 105.07421875 79.6640625 C95.15024864 91.95088264 79.50001872 98.52537502 64.15234375 100.3359375 C61.76953229 100.58393757 59.38781054 100.80694298 57 101 C57.66644531 101.30550781 58.33289063 101.61101562 59.01953125 101.92578125 C72.57323569 108.65524289 80.36149282 118.6595696 87 132 C87.46003418 132.91587891 87.92006836 133.83175781 88.39404297 134.77539062 C89.92508215 137.84242541 91.43594789 140.91842758 92.9375 144 C93.42283203 144.99161133 93.90816406 145.98322266 94.40820312 147.00488281 C96.62519787 151.65234897 98.58632165 155.78941308 99 161 C99.66 161 100.32 161 101 161 C101.3403125 161.67804688 101.680625 162.35609375 102.03125 163.0546875 C109.1574756 176.73855687 117.83792567 187.19323623 132.83984375 192.22265625 C139.13146367 193.77028587 145.56026701 194.38592258 152 195 C152 195.33 152 195.66 152 196 C138.80248356 196.49285331 126.88788436 195.2432774 115 189 C114.20078125 188.60296875 113.4015625 188.2059375 112.578125 187.796875 C92.80099573 177.10985484 84.34190614 154.27791622 75.82568359 134.75537109 C69.36023684 119.96429844 63.48043934 108.54941665 48 102 C44.6978772 100.8992924 42.05916721 100.79372928 38.58203125 100.68359375 C37.32841797 100.64169922 36.07480469 100.59980469 34.78320312 100.55664062 C33.47287109 100.51732422 32.16253906 100.47800781 30.8125 100.4375 C29.47720022 100.39429008 28.14191348 100.350675 26.80664062 100.30664062 C23.53786703 100.20043498 20.26901667 100.09839003 17 100 C17.10807774 110.20624482 17.22082093 120.4124268 17.33933926 130.61855602 C17.3942434 135.35888256 17.44760702 140.0992155 17.49731445 144.83959961 C17.54544302 149.42379294 17.59779523 154.0079212 17.65294075 158.59203529 C17.67314715 160.33128528 17.69189252 162.07055294 17.70907402 163.80983543 C17.25698323 180.14673902 17.25698323 180.14673902 20 196 C13.4 196 6.8 196 0 196 C0.64932495 194.53946701 1.2986499 193.07893402 1.96765137 191.57414246 C4.7944423 183.7397688 4.56149793 176.0154041 4.51757812 167.8137207 C4.52300778 166.10095629 4.53013515 164.38819656 4.53881836 162.67544556 C4.55695032 158.05368837 4.55002744 153.43229098 4.53730202 148.81052804 C4.5271265 143.96027979 4.53657982 139.11006094 4.54284668 134.2598114 C4.5501078 126.12033595 4.54057362 117.98100605 4.52148438 109.84155273 C4.49969664 100.44318798 4.50678699 91.04517011 4.52879 81.64681369 C4.54696164 73.55987948 4.54949435 65.47304946 4.53903532 57.38610142 C4.53281292 52.56364614 4.53193066 47.74135377 4.54518127 42.91890907 C4.55676567 38.38707027 4.54866697 33.85567765 4.52560425 29.32388687 C4.5203319 27.66469881 4.52180562 26.00547296 4.53065491 24.34630013 C4.6036425 12.63209427 4.6036425 12.63209427 0 2 C0 1.34 0 0.68 0 0 Z M17 1 C17 33.01 17 65.02 17 98 C57.12482031 100.94836723 57.12482031 100.94836723 90.4296875 84.6875 C94.89478579 79.98245021 94.89478579 79.98245021 97 74 C97.66 74 98.32 74 99 74 C99.64690922 72.3962669 100.29248764 70.79199694 100.9375 69.1875 C101.29714844 68.29417969 101.65679687 67.40085937 102.02734375 66.48046875 C106.05281172 56.21471709 105.69059896 42.03620895 101.9375 31.6875 C95.34261221 17.50017837 84.15808212 8.37571848 69.8125 2.75 C53.16642319 -1.68895382 32.03282439 1 17 1 Z " fill="#2E2E2E" transform="translate(103,438)"/>
<path d="M0 0 C0.74121094 0.226875 1.48242188 0.45375 2.24609375 0.6875 C4.23465121 1.34897441 6.09211836 2.13116914 8 3 C9.04414063 3.47050781 10.08828125 3.94101562 11.1640625 4.42578125 C31.71151311 14.1623183 49.96347247 30.31758434 60 51 C60.33 52.65 60.66 54.3 61 56 C2.26 56 -56.48 56 -117 56 C-117.33 59.3 -117.66 62.6 -118 66 C-118.18175781 66.97710937 -118.36351562 67.95421875 -118.55078125 68.9609375 C-119.2235571 73.51241237 -119.19056104 78.0299934 -119.1875 82.625 C-119.18814453 83.62668213 -119.18878906 84.62836426 -119.18945312 85.66040039 C-119.12115913 95.51879407 -118.19941568 105.22262043 -117 115 C-116.34 115 -115.68 115 -115 115 C-114.6596875 115.98097656 -114.319375 116.96195313 -113.96875 117.97265625 C-104.14837992 145.61338835 -87.15132477 169.47488636 -60.421875 182.78125 C-49.04607287 187.89284391 -38.23214 190.56351315 -25.75 190.4375 C-24.6573584 190.42775146 -23.5647168 190.41800293 -22.43896484 190.40795898 C1.29547515 189.89092606 23.18536437 179.37012612 39.6875 162.4375 C43.42493907 158.07139742 46.43151265 153.35689236 49.375 148.4375 C49.79225342 147.74132568 50.20950684 147.04515137 50.6394043 146.32788086 C53.14305317 141.97190985 54.93908345 137.67232381 56.40869141 132.86743164 C57 131 57 131 58 129 C59.32 129 60.64 129 62 129 C60.3223138 144.2370678 45.22471184 161.39898862 34 171 C29.76820886 174.16863179 25.43983662 177.12747288 21 180 C20.40791748 180.41088867 19.81583496 180.82177734 19.20581055 181.24511719 C13.76646407 184.89490412 8.18139064 186.8620168 1.9375 188.75 C0.98294922 189.05292969 0.02839844 189.35585938 -0.95507812 189.66796875 C-24.9161377 197.1092916 -52.55056312 194.67539473 -74.77246094 183.07470703 C-84.42482603 177.88674922 -92.24683507 171.73138638 -100 164 C-100.55977539 163.48099121 -101.11955078 162.96198242 -101.69628906 162.42724609 C-106.32420187 158.04576775 -109.55351896 153.36639051 -112.75 147.875 C-113.45189453 146.69744141 -113.45189453 146.69744141 -114.16796875 145.49609375 C-115.0665587 143.98656445 -115.95889523 142.47328955 -116.84399414 140.95581055 C-117.746024 139.42969414 -118.69776404 137.9329276 -119.66796875 136.44921875 C-121.49976282 133.08108127 -122.51852144 129.61540325 -123.5625 125.9375 C-123.77865967 125.17655029 -123.99481934 124.41560059 -124.2175293 123.6315918 C-129.94147513 103.01972599 -131.25752784 77.76696336 -122 58 C-121.53078125 56.88625 -121.0615625 55.7725 -120.578125 54.625 C-114.86869046 41.51025927 -107.09860478 31.97575071 -97 22 C-96.21625 21.2059375 -95.4325 20.411875 -94.625 19.59375 C-70.34744659 -3.58027825 -31.36636715 -10.78590628 0 0 Z M-90 18 C-90.87269531 18.721875 -91.74539063 19.44375 -92.64453125 20.1875 C-98.18121904 24.9688076 -102.80448873 30.01254402 -107 36 C-107.47308594 36.65742188 -107.94617188 37.31484375 -108.43359375 37.9921875 C-112.07492588 43.37314715 -112.99996635 47.33322117 -115 54 C-61.21 54 -7.42 54 48 54 C40.71447231 32.14341694 20.21971761 15.14839037 0.29931641 4.89990234 C-29.22050918 -9.36840045 -65.25989268 -2.50671376 -90 18 Z " fill="#303030" transform="translate(392,441)"/>
<path d="M0 0 C14.38054478 -0.7335043 27.50180282 4.85021472 38.515625 13.84375 C47.45386759 22.0913999 54.21250167 33.77794363 54.87890625 45.9921875 C54.92489354 47.77832722 54.95598427 49.56490865 54.97265625 51.3515625 C54.98288818 52.16737793 54.99312012 52.98319336 55.00366211 53.82373047 C54.78004819 70.06466841 50.02666784 84.57644014 44.34765625 99.6015625 C43.63893476 101.50871955 42.93152241 103.41636355 42.2253418 105.32446289 C40.7560101 109.28693983 39.27816549 113.24607936 37.79296875 117.20263672 C35.54407449 123.19519127 33.31885157 129.19635228 31.09765625 135.19921875 C28.39297634 142.50152411 25.68362993 149.80204591 22.9609375 157.09765625 C22.66369781 157.8962204 22.36645813 158.69478455 22.06021118 159.51754761 C20.73113965 163.07755565 19.38583777 166.62802231 17.97680664 170.15722656 C17.51910889 171.30803711 17.06141113 172.45884766 16.58984375 173.64453125 C16.19394043 174.61801514 15.79803711 175.59149902 15.39013672 176.59448242 C14.05880747 180.69301486 13.93693024 184.20749416 15.53515625 188.2265625 C16.97431989 190.2864643 18.47769377 192.04466455 20.2578125 193.81640625 C21.53515625 195.2265625 21.53515625 195.2265625 21.53515625 197.2265625 C16.25515625 197.2265625 10.97515625 197.2265625 5.53515625 197.2265625 C3.43659952 193.02944903 1.90338849 189.60268991 0.53515625 185.2265625 C-0.27636151 182.76790474 -1.08891452 180.30958852 -1.90234375 177.8515625 C-2.31355469 176.60632813 -2.72476563 175.36109375 -3.1484375 174.078125 C-5.27647347 167.76950213 -7.70538958 161.59268678 -10.21728516 155.4284668 C-13.7183264 146.82323988 -16.9453475 138.16463126 -19.95996094 129.37792969 C-21.66583925 124.43146612 -23.48547872 119.57024677 -25.46484375 114.7265625 C-28.08251417 108.31016192 -30.38827609 101.81888086 -32.64624023 95.26831055 C-35.35489115 87.44913668 -38.26125452 79.71035364 -41.1875 71.97045898 C-43.92679246 64.70862761 -46.54877483 57.41551918 -49.078125 50.078125 C-50.40839573 46.2974599 -51.90852572 42.59185601 -53.40991211 38.87646484 C-54.48660688 36.1718953 -55.51742176 33.45383116 -56.53515625 30.7265625 C-56.87417969 29.82035156 -57.21320312 28.91414063 -57.5625 27.98046875 C-58.25858501 26.11453744 -58.95118866 24.24730437 -59.640625 22.37890625 C-60.14529297 21.03505859 -60.14529297 21.03505859 -60.66015625 19.6640625 C-60.95937988 18.85839844 -61.25860352 18.05273438 -61.56689453 17.22265625 C-62.40029032 15.05460369 -62.40029032 15.05460369 -64.46484375 13.2265625 C-64.71234375 12.5046875 -64.95984375 11.7828125 -65.21484375 11.0390625 C-66.75508154 7.21187742 -66.75508154 7.21187742 -72.46484375 1.2265625 C-65.53484375 1.2265625 -58.60484375 1.2265625 -51.46484375 1.2265625 C-51.19671875 3.5365625 -50.92859375 5.8465625 -50.65234375 8.2265625 C-50.11579491 12.55611678 -49.53618741 16.67463262 -47.83984375 20.7265625 C-46.29270998 24.66472118 -46.20505922 27.07001 -46.46484375 31.2265625 C-45.80484375 31.2265625 -45.14484375 31.2265625 -44.46484375 31.2265625 C-38.94667451 44.62531209 -33.80831103 58.16209704 -28.71484375 71.7265625 C-28.38733124 72.59659912 -28.05981873 73.46663574 -27.72238159 74.36303711 C-21.70133565 90.36898266 -21.70133565 90.36898266 -19.26171875 97.8828125 C-17.89941757 102.07656319 -16.27442541 106.03157284 -14.42919922 110.03271484 C-12.70999949 113.94378542 -11.3932841 117.9941545 -10.02734375 122.0390625 C-7.76289954 128.63888919 -5.34197937 135.09783104 -2.578125 141.5078125 C-1.00771115 145.34292843 0.22577256 149.26960243 1.5 153.2109375 C2.93046572 157.37818103 4.64376972 161.40628685 6.36328125 165.4609375 C10.53515625 175.3065625 10.53515625 175.3065625 10.53515625 180.2265625 C11.19515625 180.2265625 11.85515625 180.2265625 12.53515625 180.2265625 C12.64472656 179.5975 12.75429688 178.9684375 12.8671875 178.3203125 C13.90854916 172.69865283 15.35508048 167.51606905 17.53515625 162.2265625 C18.5173948 159.81108572 19.49715414 157.39475543 20.47265625 154.9765625 C20.86638428 154.0033606 20.86638428 154.0033606 21.26806641 153.01049805 C23.25694424 148.04571083 24.96129978 143.0206274 26.6015625 137.9296875 C27.73164621 134.65764598 29.14629621 131.57453317 30.6015625 128.4375 C31.94140021 125.2644952 32.8174556 121.99263345 33.7578125 118.68359375 C34.50700466 116.31554416 35.4174592 114.15994883 36.47265625 111.9140625 C38.62524054 107.27459106 40.02150941 102.50338495 41.46875 97.60546875 C42.51267511 94.29779396 43.73297567 91.12770081 45.03515625 87.9140625 C51.45246624 71.22508295 55.68145137 51.37370761 49.53515625 33.9140625 C43.9876614 22.27823067 35.9520516 12.58760509 24.046875 7.07421875 C21.88954626 6.32530152 19.75624074 5.7511615 17.53515625 5.2265625 C15.77171875 4.63875 15.77171875 4.63875 13.97265625 4.0390625 C4.79909602 1.86976369 -5.79033894 2.27688336 -14.546875 5.66796875 C-16.46484375 6.2265625 -16.46484375 6.2265625 -19.46484375 5.2265625 C-12.92628164 2.72515529 -6.98862319 0.64237741 0 0 Z " fill="#2D2D2D" transform="translate(736.46484375,436.7734375)"/>
<path d="M0 0 C0.59167969 0.28504395 1.18335938 0.57008789 1.79296875 0.86376953 C10.88149574 5.28388562 18.3859234 10.31569513 26 17 C26.83402344 17.64066406 27.66804687 18.28132813 28.52734375 18.94140625 C35.6707114 24.88857015 41.12384255 33.14479194 46 41 C46.41378906 41.66257812 46.82757812 42.32515625 47.25390625 43.0078125 C48.97649399 45.87679138 50 47.59567763 50 51 C-37.12 51.495 -37.12 51.495 -126 52 C-129.00361312 61.76174264 -130.59664521 68.3159437 -130.375 78.0625 C-130.37371094 79.14337891 -130.37242187 80.22425781 -130.37109375 81.33789062 C-130.23024996 94.39723983 -127.41161604 105.81746397 -123 118 C-122.69191406 118.88558594 -122.38382813 119.77117187 -122.06640625 120.68359375 C-112.70722259 146.01578419 -93.61359224 167.91620375 -69.1015625 179.203125 C-67.7363649 179.80660512 -66.36922735 180.40571959 -65 181 C-64.38737305 181.27392578 -63.77474609 181.54785156 -63.14355469 181.83007812 C-46.32051203 189.08279992 -24.96773315 188.38637927 -8 182 C-6.96230469 181.62617187 -5.92460938 181.25234375 -4.85546875 180.8671875 C14.93222204 173.19596463 29.99783917 160.75405155 40 142 C40.66 142 41.32 142 42 142 C42.27263672 141.18208984 42.27263672 141.18208984 42.55078125 140.34765625 C44.3671875 134.8984375 46.18359375 129.44921875 48 124 C49.65 124 51.3 124 53 124 C51.1668733 129.99932374 48.92678249 135.44920563 46 141 C45.34 141 44.68 141 44 141 C43.75507812 141.70511719 43.51015625 142.41023437 43.2578125 143.13671875 C34.36459615 163.38121435 13.45280761 175.80231378 -6 184 C-7.57007813 184.66708984 -7.57007813 184.66708984 -9.171875 185.34765625 C-30.39331757 193.71034337 -58.59684847 190.81748342 -79.21386719 182.05957031 C-83.68616452 180.01037663 -87.84189666 177.62511584 -92 175 C-92.94617188 174.40703125 -93.89234375 173.8140625 -94.8671875 173.203125 C-107.77921082 164.44540484 -118.65091276 152.76495706 -126 139 C-126 138.34 -126 137.68 -126 137 C-126.66 137 -127.32 137 -128 137 C-135.48461478 117.91025114 -139.74584567 101.76090658 -138 81 C-137.95190186 80.16678223 -137.90380371 79.33356445 -137.85424805 78.47509766 C-137.36617237 71.62019421 -135.53275047 65.39724502 -133.4375 58.875 C-133.10814453 57.823125 -132.77878906 56.77125 -132.43945312 55.6875 C-131.63486841 53.12215743 -130.82162172 50.55992618 -130 48 C-129.34 48 -128.68 48 -128 48 C-127.89300781 47.27683594 -127.78601563 46.55367188 -127.67578125 45.80859375 C-123.63046233 28.99596773 -104.70677009 13.95790678 -90.8125 5.375 C-63.99526242 -10.65251632 -28.42822702 -13.96029006 0 0 Z M-104 17 C-104.75925781 17.66515625 -105.51851562 18.3303125 -106.30078125 19.015625 C-114.54792526 26.7072619 -120.9819924 36.46220647 -125 47 C-125 47.99 -125 48.98 -125 50 C-71.21 50 -17.42 50 38 50 C33.93284341 41.86568682 30.73933847 35.638957 25 29 C24.2471875 28.11441406 23.494375 27.22882813 22.71875 26.31640625 C14.34172168 16.75970148 5.14042392 9.11594219 -6 3 C-6.61875 2.63261719 -7.2375 2.26523437 -7.875 1.88671875 C-38.52208189 -15.22016532 -79.06554282 -5.21965028 -104 17 Z " fill="#323232" transform="translate(969,445)"/>
<path d="M0 0 C6.93 0 13.86 0 21 0 C21.061875 1.711875 21.12375 3.42375 21.1875 5.1875 C21.68022008 11.26438095 23.39530013 16.15772905 25.734375 21.75 C27.33968423 25.87227556 28.31253669 30.02290072 29.2265625 34.34375 C30.08228942 37.28261014 31.40610561 39.39287201 33 42 C34.03164505 44.42824531 35.00430964 46.84711196 35.9375 49.3125 C36.22689453 50.06740723 36.51628906 50.82231445 36.81445312 51.60009766 C37.8829472 54.39757985 38.94174331 57.19862893 40 60 C40.45648926 61.20414551 40.91297852 62.40829102 41.38330078 63.64892578 C46.66840884 77.59565977 51.9186299 91.54642265 56.76293945 105.65380859 C58.59694462 110.9599151 60.66329592 116.12464721 62.88671875 121.28125 C64.46179962 125.12776328 65.69812735 129.06660976 66.9765625 133.01953125 C67.9909416 135.97362001 69.14533695 138.81698085 70.375 141.6875 C72.79323778 147.34245604 74.82213014 153.0912998 76.82617188 158.90161133 C78.18710892 162.8116403 79.63766108 166.61178884 81.375 170.375 C83 174 83 174 83 177 C83.66 177 84.32 177 85 177 C85.18175781 176.3709375 85.36351562 175.741875 85.55078125 175.09375 C86.94173884 170.35736108 88.41903712 165.70315375 90.1953125 161.09765625 C91.09881576 158.74240745 91.95666923 156.37298531 92.8125 154 C99.88873504 134.52684938 99.88873504 134.52684938 103.75 125.4375 C105.48993794 121.33897952 106.78691824 117.28622222 108 113 C108.60755154 111.6172017 109.23438687 110.2427956 109.875 108.875 C112.08681829 104.06491191 113.56535437 99.11657551 115.06640625 94.046875 C115.78771206 91.69282257 116.56948079 89.46098477 117.5 87.1875 C119.0611909 83.1815871 120.08267877 79.03911094 121.125 74.875 C121.29580078 74.19332764 121.46660156 73.51165527 121.64257812 72.80932617 C125.00716066 59.05106562 127.04911174 41.86775723 120 29 C119.50242187 28.07058594 119.00484375 27.14117187 118.4921875 26.18359375 C111.016351 13.40512903 100.50992142 7.27577223 87 2 C89.92313393 0.74722832 91.04921255 1.01772644 94.1015625 2.1171875 C109.5607506 9.82964276 119.47832579 19.91666798 126 36 C130.19837935 48.59513806 128.24986739 69.15437524 123.23730469 81.40869141 C120.83470912 87.36488233 118.59922502 93.37767147 116.375 99.40234375 C115.73183838 101.13986656 115.73183838 101.13986656 115.07568359 102.91249084 C113.71589718 106.587042 112.35795794 110.26227278 111 113.9375 C110.088655 116.40043256 109.17719766 118.86332356 108.265625 121.32617188 C107.38531604 123.70569194 106.50510448 126.08524804 105.625 128.46484375 C105.01857666 130.10440285 105.01857666 130.10440285 104.39990234 131.77708435 C99.53264078 144.78801984 99.53264078 144.78801984 95.0625 157.9375 C93.68454769 162.15337789 92.09085013 166.18738978 90.3125 170.25 C87.5200102 176.90684131 87.5200102 176.90684131 87 184 C88.69213914 187.56350798 90.7684371 190.75518692 93 194 C93.33 194.66 93.66 195.32 94 196 C88.72 196 83.44 196 78 196 C77.28521484 193.98849854 76.57042969 191.97699707 75.83398438 189.90454102 C73.16673067 182.42368793 70.42113178 174.97263226 67.65625 167.52734375 C67.15965718 166.18846005 66.66311703 164.84955681 66.16662598 163.51063538 C65.13523137 160.72978727 64.10324205 157.94916085 63.07080078 155.16870117 C61.76210319 151.64412558 60.45486907 148.11900934 59.14807892 144.59372616 C58.12592701 141.83678477 57.10301242 139.08012683 56.07987976 136.32354927 C55.59813642 135.02535842 55.11661124 133.7270866 54.6353302 132.42872429 C49.29523836 117.72848952 49.29523836 117.72848952 43.38671875 103.25390625 C41.66322495 99.20976446 40.23781565 95.09425679 38.8125 90.9375 C36.18528858 83.35253239 33.49756593 75.79222506 30.75 68.25 C30.42104736 67.34628662 30.09209473 66.44257324 29.75317383 65.51147461 C28.10745599 61.00119097 26.4417316 56.49924964 24.75048828 52.00585938 C23.63556673 49.02596495 22.54451199 46.03742708 21.45117188 43.04956055 C19.97761716 39.02926607 18.49014318 35.01417015 17 31 C16.63777344 30.02160156 16.27554687 29.04320312 15.90234375 28.03515625 C14.03926532 23.18792621 11.88248679 18.48758337 9.625 13.8125 C9.08101563 12.68457031 8.53703125 11.55664062 7.9765625 10.39453125 C5.65285952 6.16918347 5.65285952 6.16918347 0 0 Z " fill="#2B2B2B" transform="translate(464,438)"/>
<path d="M0 0 C7.26 0 14.52 0 22 0 C20 5 20 5 18.89087296 7.36626911 C17.75440866 10.72605357 17.74814631 13.5924064 17.74603271 17.13969421 C17.74291273 17.84744879 17.73979275 18.55520337 17.73657823 19.28440505 C17.72861666 21.6502193 17.73491475 24.01577574 17.74121094 26.3815918 C17.73850013 28.08036957 17.7349387 29.77914616 17.73059082 31.47792053 C17.72147172 36.08974836 17.72501003 40.70148671 17.73134899 45.31331611 C17.73641557 50.14530664 17.73171532 54.97728956 17.72857666 59.8092804 C17.7249372 67.92910128 17.72973379 76.04888581 17.73925781 84.16870117 C17.750124 93.54068257 17.74663007 102.91257683 17.735605 112.28455609 C17.72650968 120.33995579 17.72525837 128.39532935 17.73048234 136.45073253 C17.73359207 141.25764791 17.73403924 146.06452245 17.72740936 150.87143517 C17.72160451 155.39651089 17.72568997 159.92147516 17.73719788 164.44653893 C17.73982852 166.10166235 17.73910685 167.75679525 17.73467255 169.41191483 C17.34584566 183.06622365 17.34584566 183.06622365 21 196 C14.07 196 7.14 196 0 196 C0.99 193.03 1.98 190.06 3 187 C4.56842665 182.15053036 5.25075816 178.05710723 5.25396729 172.96147156 C5.25708727 172.2887601 5.26020725 171.61604865 5.26342177 170.922952 C5.27134535 168.68771971 5.26510033 166.4527632 5.25878906 164.2175293 C5.26150151 162.60712527 5.26506387 160.99672248 5.26940918 159.38632202 C5.27850741 155.02460287 5.27499893 150.66297861 5.26865101 146.30125785 C5.26357512 141.72686244 5.26828712 137.15247496 5.27142334 132.57807922 C5.27505946 124.8939163 5.27027433 117.20979185 5.26074219 109.52563477 C5.24986995 100.65916309 5.2533757 91.79278348 5.264395 82.92631406 C5.27349186 75.29974479 5.27474109 67.67320314 5.26951766 60.0466302 C5.26640964 55.49796181 5.26595615 50.94933658 5.27259064 46.40067101 C5.27839801 42.12015764 5.27430554 37.83976206 5.26280212 33.55926132 C5.26017309 31.99443952 5.26089034 30.42960768 5.26532745 28.86478996 C5.28628484 20.71826111 5.09687033 12.92441306 3 5 C2.01 4.67 1.02 4.34 0 4 C0 2.68 0 1.36 0 0 Z " fill="#2A2A2A" transform="translate(632,438)"/>
<path d="M0 0 C4.62 0 9.24 0 14 0 C14.00879936 3.2319944 14.00879936 3.2319944 14.01777649 6.52928162 C14.07457904 26.8764906 14.14772755 47.22359465 14.23571491 67.57069302 C14.28055705 78.03027268 14.31999803 88.48981917 14.34643555 98.94946289 C14.36950985 108.07294815 14.40301201 117.19632741 14.44870156 126.31972843 C14.47250734 131.14426877 14.49131853 135.96870495 14.49761391 140.79330254 C14.50372255 145.34796234 14.52392701 149.9023561 14.55427551 154.45691681 C14.56296421 156.11552892 14.56679772 157.77417593 14.56500816 159.43280983 C14.55618158 171.4041372 15.18238445 183.54715335 19 195 C12.4 195 5.8 195 -1 195 C-0.35034775 193.53913971 0.2993045 192.07827942 0.96864319 190.57315063 C3.79411272 182.74237885 3.55374836 175.02669441 3.50170898 166.82958984 C3.50549868 165.11844947 3.51100406 163.40731218 3.51808167 161.69618225 C3.53196663 157.07847584 3.52091667 152.46114492 3.50437045 147.84345961 C3.49045277 142.99635542 3.49698748 138.14927154 3.50050354 133.30215454 C3.50319985 125.16687006 3.48977819 117.03173362 3.46655273 108.89648438 C3.43992878 99.50613635 3.43820377 90.11603544 3.4499411 80.72566259 C3.46073799 71.66955061 3.45451796 62.61352757 3.44038582 53.55742264 C3.4346444 49.71313995 3.4346941 45.86892273 3.43945122 42.02463913 C3.44424051 37.49531757 3.43403882 32.966265 3.41249657 28.43699455 C3.40695571 26.77984079 3.40643843 25.12266104 3.41144943 23.4655056 C3.43343086 15.15051759 3.33357053 7.78273466 0 0 Z " fill="#272727" transform="translate(104,439)"/>
<path d="M0 0 C11.65033917 0.75980473 20.28005072 7.67711441 28 16 C37.47131969 28.42140288 39.47994397 39.89853417 38.39208984 55.20068359 C37.4231547 62.11837374 34.05778642 67.45459136 30 73 C29.36449219 73.87914062 28.72898438 74.75828125 28.07421875 75.6640625 C21.22047349 84.14965187 8.77970764 92.80901357 -2.24609375 94.3046875 C-4.1875 94.3125 -4.1875 94.3125 -7 94 C-4 92 -4 92 -1 91 C0.00846217 90.00853439 1.00725485 89.0072026 2 88 C3.57101184 86.93984166 5.15574732 85.89987672 6.75 84.875 C12.4075686 80.990081 16.91112619 76.17774763 20 70 C20.66 70 21.32 70 22 70 C22.103125 69.34 22.20625 68.68 22.3125 68 C23 65 23 65 24.51171875 61.48046875 C26.41676721 56.44516421 26.53650469 51.65188808 26.5 46.3125 C26.49141968 44.85710815 26.49141968 44.85710815 26.48266602 43.37231445 C26.15649982 30.20596243 21.44211084 20.2546158 11.984375 11.03515625 C8.97392936 8.317712 5.91596442 5.87371723 2.5 3.6875 C1.2625 2.8521875 1.2625 2.8521875 0 2 C0 1.34 0 0.68 0 0 Z " fill="#2E2E2E" transform="translate(180,442)"/>
<path d="M0 0 C12.96048173 -0.31482952 24.05766814 0.51715037 36 6 C37.09441406 6.495 38.18882812 6.99 39.31640625 7.5 C59.54330016 17.09167746 78.46585543 33.36138117 88 54 C88 55.32 88 56.64 88 58 C84.04 58 80.08 58 76 58 C75.401875 56.659375 74.80375 55.31875 74.1875 53.9375 C63.2813292 32.21758358 43.85737915 14.42260776 21.11425781 5.69921875 C14.26459521 3.43392617 7.09402996 2.22942823 0 1 C0 0.67 0 0.34 0 0 Z " fill="#2C2C2C" transform="translate(364,438)"/>
<path d="M0 0 C8.54572328 -0.04657127 17.09139253 -0.08199411 25.6372118 -0.10362434 C29.60641308 -0.11401164 33.57552682 -0.12807714 37.54467773 -0.15087891 C41.38317906 -0.1727893 45.22159678 -0.18460652 49.06015587 -0.18975449 C50.51639813 -0.19341788 51.9726364 -0.20057041 53.42884254 -0.21146011 C70.36495745 -0.33294389 70.36495745 -0.33294389 78 2 C78.99 2.99 78.99 2.99 80 4 C79.01 4 78.02 4 77 4 C77 4.66 77 5.32 77 6 C76.35933594 5.79503906 75.71867187 5.59007812 75.05859375 5.37890625 C74.19363281 5.10949219 73.32867187 4.84007812 72.4375 4.5625 C71.59058594 4.29566406 70.74367188 4.02882813 69.87109375 3.75390625 C53.33874992 -0.58723982 31.45744466 1.33621964 17 1 C17 33.01 17 65.02 17 98 C47.29706351 98.22198947 47.29706351 98.22198947 77 94 C76 96 76 96 73 98 C73 98.33 73 98.66 73 99 C67.72 99.66 62.44 100.32 57 101 C57.99 101.99 57.99 101.99 59 103 C58.01 103.495 58.01 103.495 57 104 C56.67 104.66 56.34 105.32 56 106 C55.18595703 105.58427734 55.18595703 105.58427734 54.35546875 105.16015625 C53.64003906 104.79792969 52.92460937 104.43570313 52.1875 104.0625 C51.47980469 103.70285156 50.77210938 103.34320312 50.04296875 102.97265625 C39.301317 97.85856201 31.65635429 100.52344122 17 100 C17.33 128.38 17.66 156.76 18 186 C14.49795474 182.49795474 15.03426074 177.0350581 14.87695217 172.28257751 C14.87787396 170.99944168 14.87879576 169.71630585 14.87974548 168.39428711 C14.87889106 167.67283005 14.87803663 166.95137299 14.87715632 166.20805359 C14.87552218 163.81445758 14.88098871 161.4209332 14.88647461 159.02734375 C14.88675695 157.30204775 14.88659782 155.57675162 14.8860321 153.85145569 C14.88574598 149.18471228 14.8916129 144.51799474 14.89860606 139.85125732 C14.9048703 134.96789685 14.90544583 130.08453574 14.90663147 125.20117188 C14.90973574 115.96140673 14.91793693 106.72165346 14.92798096 97.48189354 C14.93917019 86.95953982 14.94465963 76.43718553 14.94967639 65.91482735 C14.9601203 44.27654477 14.97790438 22.63827355 15 1 C10.05 1.33 5.1 1.66 0 2 C0 1.34 0 0.68 0 0 Z " fill="#666666" transform="translate(103,438)"/>
<path d="M0 0 C0 0.33 0 0.66 0 1 C-0.75394043 1.03963867 -1.50788086 1.07927734 -2.28466797 1.12011719 C-34.85507735 2.91498523 -60.16636896 8.12440835 -84 32 C-86.19978215 34.55194025 -88.1361049 37.19576143 -90 40 C-90.43957031 40.63550781 -90.87914062 41.27101563 -91.33203125 41.92578125 C-94.8279686 47.19609164 -96.55544933 51.88862334 -99 58 C-40.92 58 17.16 58 77 58 C77 58.66 77 59.32 77 60 C18.26 60 -40.48 60 -101 60 C-101 61.98 -101 63.96 -101 66 C-101.33 66 -101.66 66 -102 66 C-102.495 63.525 -102.495 63.525 -103 61 C-103.99 61.495 -103.99 61.495 -105 62 C-101.14522201 47.03439133 -91.73932121 36.60867253 -81 26 C-80.21625 25.2059375 -79.4325 24.411875 -78.625 23.59375 C-56.67620359 2.64262615 -28.98785794 -0.61595645 0 0 Z " fill="#777777" transform="translate(376,437)"/>
<path d="M0 0 C0.62358398 0.30631348 1.24716797 0.61262695 1.88964844 0.92822266 C3.91532889 1.93416946 5.9282951 2.96156474 7.9375 4 C8.56470947 4.3199292 9.19191895 4.6398584 9.83813477 4.96948242 C13.97930387 7.17910906 16.87139953 9.58050498 20 13 C18.02 13 16.04 13 14 13 C14 14.65 14 16.3 14 18 C13.113125 17.175 12.22625 16.35 11.3125 15.5 C6.01303694 10.95452558 0.01034087 7.50540531 -6 4 C-6.68964844 3.58492188 -7.37929688 3.16984375 -8.08984375 2.7421875 C-25.82306752 -7.11391499 -49.88599505 -7.43929969 -69 -2 C-81.87247614 2.37632128 -93.83480021 8.97400363 -104 18 C-104.68578125 18.59167969 -105.3715625 19.18335938 -106.078125 19.79296875 C-114.10955645 27.20781393 -119.93181263 36.92578207 -124 47 C-124.66 46.34 -125.32 45.68 -126 45 C-126.99 45.495 -126.99 45.495 -128 46 C-120.86261487 25.78363689 -101.382217 10.53001368 -83 1 C-57.54602809 -11.0034401 -25.57026129 -12.59092613 0 0 Z " fill="#303030" transform="translate(969,445)"/>
<path d="M0 0 C4.95 0 9.9 0 15 0 C15 0.99 15 1.98 15 3 C11.37 3 7.74 3 4 3 C4 4.65 4 6.3 4 8 C5.79206547 7.85915204 7.58364917 7.71216299 9.375 7.5625 C10.37273437 7.48128906 11.37046875 7.40007813 12.3984375 7.31640625 C14.97927613 7.15034374 14.97927613 7.15034374 17 6 C17.309375 5.360625 17.61875 4.72125 17.9375 4.0625 C19 2 19 2 22 0 C25.42017557 -0.39958487 28.87293041 -0.5635348 32 1 C32 1.99 32 2.98 32 4 C28.7 4 25.4 4 22 4 C22 4.99 22 5.98 22 7 C22.71027344 7.27714844 23.42054688 7.55429687 24.15234375 7.83984375 C25.07144531 8.20207031 25.99054688 8.56429687 26.9375 8.9375 C27.85402344 9.29714844 28.77054687 9.65679688 29.71484375 10.02734375 C32 11 32 11 33 12 C33.3125 14.375 33.3125 14.375 33 17 C31.4375 18.8125 31.4375 18.8125 29 20 C24.78021425 20.30689351 21.11627241 19.84746785 17 19 C16.67 19.33 16.34 19.66 16 20 C13.3013095 20.07325436 10.63497444 20.09222351 7.9375 20.0625 C5.318125 20.041875 2.69875 20.02125 0 20 C0 13.4 0 6.8 0 0 Z " fill="#D9D9D9" transform="translate(429,675)"/>
<path d="M0 0 C14.38054478 -0.7335043 27.50180282 4.85021472 38.515625 13.84375 C47.45386759 22.0913999 54.21250167 33.77794363 54.87890625 45.9921875 C54.92489354 47.77832722 54.95598427 49.56490865 54.97265625 51.3515625 C54.98288818 52.16737793 54.99312012 52.98319336 55.00366211 53.82373047 C54.78004819 70.06466841 50.02666784 84.57644014 44.34765625 99.6015625 C43.63893476 101.50871955 42.93152241 103.41636355 42.2253418 105.32446289 C40.7560101 109.28693983 39.27816549 113.24607936 37.79296875 117.20263672 C35.54407449 123.19519127 33.31885157 129.19635228 31.09765625 135.19921875 C28.39297645 142.50152381 25.68372272 149.80208074 22.9609375 157.09765625 C22.66360718 157.89617508 22.36627686 158.69469391 22.05993652 159.51741028 C20.73051935 163.07730802 19.38568333 166.62839767 17.98120117 170.15942383 C17.52463135 171.31079834 17.06806152 172.46217285 16.59765625 173.6484375 C16.20320312 174.62264648 15.80875 175.59685547 15.40234375 176.60058594 C14.1709765 180.32935457 14.1542514 183.34133305 14.53515625 187.2265625 C12.03477891 185.05232133 11.09887039 183.49610452 10.53515625 180.2265625 C11.19515625 180.2265625 11.85515625 180.2265625 12.53515625 180.2265625 C12.64472656 179.5975 12.75429688 178.9684375 12.8671875 178.3203125 C13.90854916 172.69865283 15.35508048 167.51606905 17.53515625 162.2265625 C18.5173948 159.81108572 19.49715414 157.39475543 20.47265625 154.9765625 C20.7351416 154.32776123 20.99762695 153.67895996 21.26806641 153.01049805 C23.25694424 148.04571083 24.96129978 143.0206274 26.6015625 137.9296875 C27.73164621 134.65764598 29.14629621 131.57453317 30.6015625 128.4375 C31.94140021 125.2644952 32.8174556 121.99263345 33.7578125 118.68359375 C34.50700466 116.31554416 35.4174592 114.15994883 36.47265625 111.9140625 C38.62524054 107.27459106 40.02150941 102.50338495 41.46875 97.60546875 C42.51267511 94.29779396 43.73297567 91.12770081 45.03515625 87.9140625 C51.45246624 71.22508295 55.68145137 51.37370761 49.53515625 33.9140625 C43.9876614 22.27823067 35.9520516 12.58760509 24.046875 7.07421875 C21.88954626 6.32530152 19.75624074 5.7511615 17.53515625 5.2265625 C16.35953125 4.8346875 15.18390625 4.4428125 13.97265625 4.0390625 C4.79909602 1.86976369 -5.79033894 2.27688336 -14.546875 5.66796875 C-16.46484375 6.2265625 -16.46484375 6.2265625 -19.46484375 5.2265625 C-12.92628164 2.72515529 -6.98862319 0.64237741 0 0 Z " fill="#7E7E7E" transform="translate(736.46484375,436.7734375)"/>
<path d="M0 0 C10.9268035 4.96868427 18.87183209 18.05539012 24.984375 27.90234375 C25.39816406 28.56492187 25.81195312 29.2275 26.23828125 29.91015625 C27.96086899 32.77913513 28.984375 34.49802138 28.984375 37.90234375 C25.024375 37.90234375 21.064375 37.90234375 16.984375 37.90234375 C16.47390625 36.90976562 15.9634375 35.9171875 15.4375 34.89453125 C9.74466267 24.1462734 3.08114416 14.53202195 -5.85546875 6.18359375 C-7.015625 4.90234375 -7.015625 4.90234375 -7.203125 2.21484375 C-7.14125 1.45171875 -7.079375 0.68859375 -7.015625 -0.09765625 C-4.38117012 -1.41488369 -2.73606133 -0.86491195 0 0 Z " fill="#2A2A2A" transform="translate(990.015625,458.09765625)"/>
<path d="M0 0 C11.36734433 0.5052153 20.37879601 8.1641142 28 16 C40.62632241 29.95540897 40.55792965 45.19006752 40 63 C39.6327326 69.16193089 38.5756053 74.69219933 36.23730469 80.40869141 C33.83470912 86.36488233 31.59922502 92.37767147 29.375 98.40234375 C28.94622559 99.56069229 28.51745117 100.71904083 28.07568359 101.91249084 C26.71589718 105.587042 25.35795794 109.26227278 24 112.9375 C23.088655 115.40043256 22.17719766 117.86332356 21.265625 120.32617188 C20.38531604 122.70569194 19.50510448 125.08524804 18.625 127.46484375 C18.01857666 129.10440285 18.01857666 129.10440285 17.39990234 130.77708435 C12.53264078 143.78801984 12.53264078 143.78801984 8.0625 156.9375 C6.68454769 161.15337789 5.09085013 165.18738978 3.3125 169.25 C1.29027133 173.96234937 0.37719227 177.90790429 0 183 C-0.495 183.99 -0.495 183.99 -1 185 C-2 184 -2 184 -2.0625 181.4375 C-2.041875 180.633125 -2.02125 179.82875 -2 179 C-2.66 179 -3.32 179 -4 179 C-4.33 177.02 -4.66 175.04 -5 173 C-4.67 173.99 -4.34 174.98 -4 176 C-3.34 176 -2.68 176 -2 176 C-1.81824219 175.3709375 -1.63648438 174.741875 -1.44921875 174.09375 C-0.05826116 169.35736108 1.41903712 164.70315375 3.1953125 160.09765625 C4.09881576 157.74240745 4.95666923 155.37298531 5.8125 153 C12.88873504 133.52684938 12.88873504 133.52684938 16.75 124.4375 C18.48993794 120.33897952 19.78691824 116.28622222 21 112 C21.60755154 110.6172017 22.23438687 109.2427956 22.875 107.875 C25.08681829 103.06491191 26.56535437 98.11657551 28.06640625 93.046875 C28.78771206 90.69282257 29.56948079 88.46098477 30.5 86.1875 C32.0611909 82.1815871 33.08267877 78.03911094 34.125 73.875 C34.38120117 72.85249146 34.38120117 72.85249146 34.64257812 71.80932617 C38.00716066 58.05106562 40.04911174 40.86775723 33 28 C32.50242187 27.07058594 32.00484375 26.14117187 31.4921875 25.18359375 C24.016351 12.40512903 13.50992142 6.27577223 0 1 C0 0.67 0 0.34 0 0 Z " fill="#7A7A7A" transform="translate(551,439)"/>
<path d="M0 0 C13.125 -0.66964286 13.125 -0.66964286 16.75 2.375 C19.58385398 5.68116297 20.22642997 7.11528627 20 11.375 C19.48718708 15.21182921 19.20767056 15.81078905 16.1875 18.5625 C11.06408678 20.93127473 5.50422868 20.24738106 0 20 C0 13.4 0 6.8 0 0 Z " fill="#636363" transform="translate(530,675)"/>
<path d="M0 0 C3.0097291 1.77847628 5.41086334 3.82172667 7 7 C7.40417552 9.96395382 7.56382171 12.08904926 5.953125 14.69140625 C4.15636794 16.88450678 2.55808759 18.7209562 0 20 C-7.07953977 20.58029015 -7.07953977 20.58029015 -10.875 18.1875 C-13.61409443 15.36784397 -14.89811913 13.5999651 -15.5625 9.6875 C-14.87530016 5.18252329 -13.6260909 3.78453195 -10.06640625 1.109375 C-6.34774548 -0.88703267 -4.1878054 -0.73120412 0 0 Z " fill="#EAEAEA" transform="translate(576,675)"/>
<path d="M0 0 C1.32 0 2.64 0 4 0 C4 5.61 4 11.22 4 17 C7.63 17 11.26 17 15 17 C18.32311275 11.54060049 20.74044324 5.97340271 23 0 C24.32 0 25.64 0 27 0 C28.34277732 2.7663534 29.67255228 5.53876211 31 8.3125 C31.3815625 9.09818359 31.763125 9.88386719 32.15625 10.69335938 C32.69765625 11.8293457 32.69765625 11.8293457 33.25 12.98828125 C33.58515625 13.68477783 33.9203125 14.38127441 34.265625 15.09887695 C35 17 35 17 35 20 C33.68 19.67 32.36 19.34 31 19 C31 17.68 31 16.36 31 15 C27.37 15 23.74 15 20 15 C19.01 17.475 19.01 17.475 18 20 C12.06 20 6.12 20 0 20 C0 13.4 0 6.8 0 0 Z " fill="#797979" transform="translate(375,675)"/>
<path d="M0 0 C1.65 0 3.3 0 5 0 C3.1668733 5.99932374 0.92678249 11.44920563 -2 17 C-2.66 17 -3.32 17 -4 17 C-4.36738281 18.05767578 -4.36738281 18.05767578 -4.7421875 19.13671875 C-13.63540385 39.38121435 -34.54719239 51.80231378 -54 60 C-55.04671875 60.44472656 -56.0934375 60.88945313 -57.171875 61.34765625 C-67.71849645 65.50374013 -78.41279617 65.13755595 -89.625 65.0625 C-90.91535156 65.05798828 -92.20570313 65.05347656 -93.53515625 65.04882812 C-96.69015375 65.03714295 -99.84505137 65.02076044 -103 65 C-103 64.67 -103 64.34 -103 64 C-97.73276026 63.07972942 -92.59865848 62.86948229 -87.2565918 62.76074219 C-76.24018574 62.51297835 -66.43551011 61.77049453 -56 58 C-54.96101562 57.62746094 -53.92203125 57.25492188 -52.8515625 56.87109375 C-33.06906381 49.16659876 -18.00943226 36.76768548 -8 18 C-7.34 18 -6.68 18 -6 18 C-5.81824219 17.45472656 -5.63648438 16.90945313 -5.44921875 16.34765625 C-3.6328125 10.8984375 -1.81640625 5.44921875 0 0 Z " fill="#777777" transform="translate(1017,569)"/>
<path d="M0 0 C1.86328125 0.15625 1.86328125 0.15625 4 1 C5.23046875 3.46875 5.23046875 3.46875 6.1875 6.5 C7.10126987 10.03092035 7.10126987 10.03092035 9 13 C10.32 8.71 11.64 4.42 13 0 C14.32 0 15.64 0 17 0 C17.67467562 1.74692795 18.33944156 3.49768525 19 5.25 C19.556875 6.71179688 19.556875 6.71179688 20.125 8.203125 C21 11 21 11 21 15 C21.66 15 22.32 15 23 15 C22.87625 13.7934375 22.87625 13.7934375 22.75 12.5625 C23.08293982 7.81810753 24.90164524 4.21544483 27 0 C27.99 0 28.98 0 30 0 C28.63125844 6.95776959 26.5466871 13.38603107 24 20 C22.68 20 21.36 20 20 20 C19.32404685 18.58774074 18.65959941 17.16997095 18 15.75 C17.62875 14.96109375 17.2575 14.1721875 16.875 13.359375 C16 11 16 11 16 7 C15.34 7 14.68 7 14 7 C13.8453125 8.2684375 13.8453125 8.2684375 13.6875 9.5625 C12.9171146 13.41442701 11.63725486 16.44075031 10 20 C9.01 20 8.02 20 7 20 C3.37172342 13.34261178 0.29455112 7.65832917 0 0 Z " fill="#5C5C5C" transform="translate(619,675)"/>
<path d="M0 0 C1.32 0 2.64 0 4 0 C2.3223138 15.2370678 -12.77528816 32.39898862 -24 42 C-28.23179114 45.16863179 -32.56016338 48.12747288 -37 51 C-37.59498291 51.41088867 -38.18996582 51.82177734 -38.80297852 52.24511719 C-44.17328711 55.83577408 -49.66139754 57.85408314 -55.8125 59.75 C-56.73353516 60.05292969 -57.65457031 60.35585938 -58.60351562 60.66796875 C-67.23281373 63.38538243 -75.65411482 64.51897608 -84.6875 63.5625 C-85.70199219 63.46066406 -86.71648437 63.35882812 -87.76171875 63.25390625 C-88.50035156 63.17011719 -89.23898437 63.08632813 -90 63 C-90 62.67 -90 62.34 -90 62 C-88.8140625 61.97421875 -87.628125 61.9484375 -86.40625 61.921875 C-60.19482494 61.11503413 -36.85200937 52.46064874 -18.3125 33.4375 C-14.57506093 29.07139742 -11.56848735 24.35689236 -8.625 19.4375 C-7.99911987 18.39323853 -7.99911987 18.39323853 -7.3605957 17.32788086 C-4.85694683 12.97190985 -3.06091655 8.67232381 -1.59130859 3.86743164 C-1 2 -1 2 0 0 Z " fill="#848484" transform="translate(450,570)"/>
<path d="M0 0 C10.04995766 -0.48433531 10.04995766 -0.48433531 14.1875 1.625 C16 4 16 4 16.625 7 C16 10 16 10 14 12.375 C10.00223382 14.54045668 7.49937346 14.30504227 3 14 C3 15.98 3 17.96 3 20 C2.01 20 1.02 20 0 20 C0 13.4 0 6.8 0 0 Z " fill="#515151" transform="translate(346,675)"/>
<path d="M0 0 C11.36734433 0.5052153 20.37879601 8.1641142 28 16 C36.98651981 25.93246927 40.19694759 36.79575718 40.1875 49.875 C40.18669434 51.00583008 40.18588867 52.13666016 40.18505859 53.30175781 C40.1146677 62.89424245 39.82492326 72.06446498 36 81 C35.01 81 34.02 81 33 81 C33.18175781 80.10861328 33.18175781 80.10861328 33.3671875 79.19921875 C33.72571762 77.42587362 34.07654875 75.65096356 34.421875 73.875 C34.77513909 72.11822725 35.15430506 70.36609812 35.578125 68.625 C38.44053076 55.8668486 39.42629755 39.73084494 33 28 C32.50242187 27.07058594 32.00484375 26.14117187 31.4921875 25.18359375 C24.016351 12.40512903 13.50992142 6.27577223 0 1 C0 0.67 0 0.34 0 0 Z " fill="#8B8B8B" transform="translate(551,439)"/>
<path d="M0 0 C2.375 -0.125 2.375 -0.125 5 0 C7 2 7 2 7.25 4.375 C6.99345272 7.06874642 6.36770587 8.69199635 5 11 C5.99 11.66 6.98 12.32 8 13 C8.33 12.34 8.66 11.68 9 11 C9.66 11 10.32 11 11 11 C10.979375 11.928125 10.95875 12.85625 10.9375 13.8125 C10.84230396 17.02286011 10.84230396 17.02286011 12 20 C11.01 20 10.02 20 9 20 C9 19.34 9 18.68 9 18 C8.505 18.33 8.01 18.66 7.5 19 C3.78330061 20.48667975 1.0058044 20.31792098 -3 20 C-5.0625 18.8125 -5.0625 18.8125 -6 17 C-5.75546876 13.65807308 -5.39456443 12.39456443 -3 10 C-2.59952556 7.67724823 -2.2602896 5.34260643 -2 3 C-1.01 4.485 -1.01 4.485 0 6 C0.99 6 1.98 6 3 6 C3.33 4.68 3.66 3.36 4 2 C2.68 2 1.36 2 0 2 C0 1.34 0 0.68 0 0 Z " fill="#4A4A4A" transform="translate(598,675)"/>
<path d="M0 0 C14.38054478 -0.7335043 27.50180282 4.85021472 38.515625 13.84375 C46.07874217 20.82252037 52.65091372 31.04146776 54.53515625 41.2265625 C54.69408722 46.58920107 54.14936047 51.90568461 53.53515625 57.2265625 C53.20515625 57.2265625 52.87515625 57.2265625 52.53515625 57.2265625 C52.52097656 56.22238281 52.50679687 55.21820313 52.4921875 54.18359375 C52.08381981 39.9292829 48.39720171 27.96740409 38.53515625 17.2265625 C32.1446404 11.48032209 25.92414601 7.20796199 17.53515625 5.2265625 C16.35953125 4.8346875 15.18390625 4.4428125 13.97265625 4.0390625 C4.79909602 1.86976369 -5.79033894 2.27688336 -14.546875 5.66796875 C-16.46484375 6.2265625 -16.46484375 6.2265625 -19.46484375 5.2265625 C-12.92628164 2.72515529 -6.98862319 0.64237741 0 0 Z " fill="#919191" transform="translate(736.46484375,436.7734375)"/>
<path d="M0 0 C0 0.33 0 0.66 0 1 C-0.94359375 1.15855469 -1.8871875 1.31710937 -2.859375 1.48046875 C-20.49878368 4.68602394 -36.51037542 12.02214369 -50 24 C-50.68578125 24.59167969 -51.3715625 25.18335938 -52.078125 25.79296875 C-60.10955645 33.20781393 -65.93181263 42.92578207 -70 53 C-70.66 52.34 -71.32 51.68 -72 51 C-72.99 51.495 -72.99 51.495 -74 52 C-66.86261487 31.78363689 -47.382217 16.53001368 -29 7 C-9.25151515 -2.31287879 -9.25151515 -2.31287879 0 0 Z " fill="#747474" transform="translate(915,439)"/>
<path d="M0 0 C4.78837486 1.19709372 6.068472 3.24110423 8.75 7.0625 C9.16121094 7.63033203 9.57242188 8.19816406 9.99609375 8.78320312 C11.00695036 10.18194657 12.00477206 11.59009375 13 13 C13.33 8.71 13.66 4.42 14 0 C14.99 0 15.98 0 17 0 C17 6.6 17 13.2 17 20 C12.87596941 17.9379847 11.58726993 16.52120266 8.875 12.9375 C6.39068378 9.4287459 6.39068378 9.4287459 3 7 C3 11.29 3 15.58 3 20 C2.01 20 1.02 20 0 20 C0 13.4 0 6.8 0 0 Z " fill="#585858" transform="translate(706,675)"/>
<path d="M0 0 C3.0097291 1.77847628 5.41086334 3.82172667 7 7 C7.40417552 9.96395382 7.56382171 12.08904926 5.953125 14.69140625 C4.15636794 16.88450678 2.55808759 18.7209562 0 20 C-7.07953977 20.58029015 -7.07953977 20.58029015 -10.875 18.1875 C-13.61409443 15.36784397 -14.89811913 13.5999651 -15.5625 9.6875 C-14.87530016 5.18252329 -13.6260909 3.78453195 -10.06640625 1.109375 C-6.34774548 -0.88703267 -4.1878054 -0.73120412 0 0 Z M-10 4 C-11.63310789 7.26621578 -11.62155491 10.48256426 -11 14 C-9.62283334 16.71107713 -9.62283334 16.71107713 -7 18 C-3.55577787 17.93957505 -1.09582493 17.60093625 1.9375 15.9375 C3.69043126 12.74097829 3.51780725 9.55067826 3 6 C2.16666667 3.83333333 2.16666667 3.83333333 0 3 C-3.56444611 2.48018494 -6.73794446 2.36897223 -10 4 Z " fill="#585858" transform="translate(576,675)"/>
<path d="M0 0 C7.22891566 -0.48192771 7.22891566 -0.48192771 10.5 1.5625 C12.56021138 4.91034349 12.49125459 7.14014247 12 11 C10.765625 12.703125 10.765625 12.703125 9 14 C6.73828125 14.29296875 6.73828125 14.29296875 4.3125 14.1875 C2.889375 14.125625 1.46625 14.06375 0 14 C0 9.38 0 4.76 0 0 Z " fill="#EDEDED" transform="translate(534,678)"/>
<path d="M0 0 C0.99 0 1.98 0 3 0 C3.33 5.61 3.66 11.22 4 17 C7.96 16.505 7.96 16.505 12 16 C12.33 10.72 12.66 5.44 13 0 C14.32 0 15.64 0 17 0 C17 5.28 17 10.56 17 16 C16.34 16 15.68 16 15 16 C14.67 16.99 14.34 17.98 14 19 C10.86599115 20.56700442 7.36844905 20.85164561 4 20 C0.83368663 17.12604657 0.053375 15.51506872 -0.390625 11.23046875 C-0.36431837 9.88225415 -0.31701804 8.53430482 -0.25 7.1875 C-0.23195313 6.49462891 -0.21390625 5.80175781 -0.1953125 5.08789062 C-0.14851064 3.39132336 -0.07677624 1.69547524 0 0 Z " fill="#565656" transform="translate(508,675)"/>
<path d="M0 0 C4.37393532 1.38298409 8.50285404 3.06228237 12.6875 4.9375 C18.01855877 7.29419416 23.30193267 9.06438175 28.98828125 10.359375 C29.98408203 10.67648437 29.98408203 10.67648437 31 11 C31.495 11.99 31.495 11.99 32 13 C20.98316347 14.09197719 8.80429802 11.14032943 -1 6 C-1.042721 4.33388095 -1.04063832 2.66617115 -1 1 C-0.67 0.67 -0.34 0.34 0 0 Z " fill="#333333" transform="translate(889,620)"/>
<path d="M0 0 C4.95 0 9.9 0 15 0 C15 0.99 15 1.98 15 3 C11.04 3 7.08 3 3 3 C3 4.98 3 6.96 3 9 C6.3 9 9.6 9 13 9 C13 9.66 13 10.32 13 11 C9.7 11 6.4 11 3 11 C3 13.31 3 15.62 3 18 C6.96 18 10.92 18 15 18 C15 18.66 15 19.32 15 20 C10.05 20 5.1 20 0 20 C0 13.4 0 6.8 0 0 Z " fill="#474747" transform="translate(429,675)"/>
<path d="M0 0 C4.62 0 9.24 0 14 0 C14 0.99 14 1.98 14 3 C10.37 3 6.74 3 3 3 C3 4.98 3 6.96 3 9 C6.3 9 9.6 9 13 9 C13 9.66 13 10.32 13 11 C9.7 11 6.4 11 3 11 C3 13.31 3 15.62 3 18 C6.63 18 10.26 18 14 18 C14 18.66 14 19.32 14 20 C9.38 20 4.76 20 0 20 C0 13.4 0 6.8 0 0 Z " fill="#414141" transform="translate(729,675)"/>
<path d="M0 0 C4.62 0 9.24 0 14 0 C14 0.99 14 1.98 14 3 C10.37 3 6.74 3 3 3 C3 4.98 3 6.96 3 9 C6.3 9 9.6 9 13 9 C13 9.66 13 10.32 13 11 C9.7 11 6.4 11 3 11 C3 13.31 3 15.62 3 18 C6.63 18 10.26 18 14 18 C14 18.66 14 19.32 14 20 C9.38 20 4.76 20 0 20 C0 13.4 0 6.8 0 0 Z " fill="#424242" transform="translate(653,675)"/>
<path d="M0 0 C0 0.33 0 0.66 0 1 C-0.75394043 1.03963867 -1.50788086 1.07927734 -2.28466797 1.12011719 C-28.03439093 2.53911547 -51.1929193 4.86426941 -71.8984375 21.53125 C-74 23 -74 23 -77 23 C-73.40821643 19.14391538 -69.67262973 16.24941108 -65.125 13.5625 C-64.47080078 13.17562012 -63.81660156 12.78874023 -63.14257812 12.39013672 C-42.80174917 0.67712827 -23.06985562 -0.49020615 0 0 Z " fill="#6A6A6A" transform="translate(376,437)"/>
<path d="M0 0 C1.21236328 0.04060547 1.21236328 0.04060547 2.44921875 0.08203125 C3.06410156 0.11683594 3.67898438 0.15164063 4.3125 0.1875 C4.6425 1.1775 4.9725 2.1675 5.3125 3.1875 C0.8575 3.6825 0.8575 3.6825 -3.6875 4.1875 C-3.6875 5.1775 -3.6875 6.1675 -3.6875 7.1875 C-2.62208984 7.60322266 -2.62208984 7.60322266 -1.53515625 8.02734375 C-0.61605469 8.38957031 0.30304688 8.75179687 1.25 9.125 C2.16652344 9.48464844 3.08304687 9.84429688 4.02734375 10.21484375 C6.3125 11.1875 6.3125 11.1875 7.3125 12.1875 C7.7739486 16.57126168 7.7739486 16.57126168 6.078125 18.8359375 C3.83482798 20.55315159 2.60721061 20.53065702 -0.1875 20.4375 C-1.34765625 20.41429687 -1.34765625 20.41429687 -2.53125 20.390625 C-4.6875 20.1875 -4.6875 20.1875 -7.6875 19.1875 C-7.6875 18.1975 -7.6875 17.2075 -7.6875 16.1875 C-4.3875 16.5175 -1.0875 16.8475 2.3125 17.1875 C2.3125 15.8675 2.3125 14.5475 2.3125 13.1875 C1.75820313 12.99414062 1.20390625 12.80078125 0.6328125 12.6015625 C-0.09164063 12.34117187 -0.81609375 12.08078125 -1.5625 11.8125 C-2.64144531 11.42964844 -2.64144531 11.42964844 -3.7421875 11.0390625 C-5.6875 10.1875 -5.6875 10.1875 -7.6875 8.1875 C-8.04678679 5.38506307 -8.17641217 3.84457304 -6.4609375 1.5390625 C-4.16572234 -0.21015434 -2.85019248 -0.12392141 0 0 Z " fill="#525252" transform="translate(480.6875,674.8125)"/>
<path d="M0 0 C0.66 0.33 1.32 0.66 2 1 C2 1.99 2 2.98 2 4 C-1.3 4 -4.6 4 -8 4 C-8 4.99 -8 5.98 -8 7 C-6.93458984 7.41572266 -6.93458984 7.41572266 -5.84765625 7.83984375 C-4.92855469 8.20207031 -4.00945312 8.56429687 -3.0625 8.9375 C-2.14597656 9.29714844 -1.22945313 9.65679688 -0.28515625 10.02734375 C2 11 2 11 3 12 C3.3125 14.375 3.3125 14.375 3 17 C0.61792245 19.76320996 -0.84814927 19.9864419 -4.5 20.3125 C-7.6490748 20.03133261 -9.38237988 19.67527688 -12 18 C-12 17.34 -12 16.68 -12 16 C-11.30132812 16.0721875 -10.60265625 16.144375 -9.8828125 16.21875 C-8.51769531 16.35796875 -8.51769531 16.35796875 -7.125 16.5 C-5.76761719 16.63921875 -5.76761719 16.63921875 -4.3828125 16.78125 C-2.06686789 17.03047295 -2.06686789 17.03047295 0 17 C0 15.68 0 14.36 0 13 C-0.69867188 12.80664062 -1.39734375 12.61328125 -2.1171875 12.4140625 C-3.02726562 12.15367187 -3.93734375 11.89328125 -4.875 11.625 C-5.77992188 11.36976563 -6.68484375 11.11453125 -7.6171875 10.8515625 C-10 10 -10 10 -12 8 C-12.375 5.5625 -12.375 5.5625 -12 3 C-8.70534067 -0.9810467 -4.76547403 -0.30744994 0 0 Z " fill="#424242" transform="translate(459,675)"/>
<path d="M0 0 C1.21236328 0.04060547 1.21236328 0.04060547 2.44921875 0.08203125 C3.06410156 0.11683594 3.67898438 0.15164063 4.3125 0.1875 C4.6425 1.1775 4.9725 2.1675 5.3125 3.1875 C0.8575 3.6825 0.8575 3.6825 -3.6875 4.1875 C-3.6875 5.1775 -3.6875 6.1675 -3.6875 7.1875 C-3.04941406 7.39503906 -2.41132812 7.60257813 -1.75390625 7.81640625 C0.79808503 8.76792874 3.0309428 9.69372576 5.3125 11.1875 C6.375 14.9375 6.375 14.9375 6.3125 18.1875 C3.28705666 20.20446222 2.70182618 20.44561096 -0.6875 20.375 C-1.368125 20.36855469 -2.04875 20.36210938 -2.75 20.35546875 C-4.6875 20.1875 -4.6875 20.1875 -7.6875 19.1875 C-7.6875 18.1975 -7.6875 17.2075 -7.6875 16.1875 C-6.6975 16.5175 -5.7075 16.8475 -4.6875 17.1875 C-2.35450175 17.22704234 -0.02041811 17.23151732 2.3125 17.1875 C2.3125 15.8675 2.3125 14.5475 2.3125 13.1875 C1.75820313 12.99414062 1.20390625 12.80078125 0.6328125 12.6015625 C-0.09164062 12.34117187 -0.81609375 12.08078125 -1.5625 11.8125 C-2.64144531 11.42964844 -2.64144531 11.42964844 -3.7421875 11.0390625 C-5.6875 10.1875 -5.6875 10.1875 -7.6875 8.1875 C-8.04678679 5.38506307 -8.17641217 3.84457304 -6.4609375 1.5390625 C-4.16572234 -0.21015434 -2.85019248 -0.12392141 0 0 Z " fill="#3F3F3F" transform="translate(754.6875,674.8125)"/>
<path d="M0 0 C1.051875 -0.00386719 1.051875 -0.00386719 2.125 -0.0078125 C4 0.125 4 0.125 6 1.125 C6 2.115 6 3.105 6 4.125 C2.7 4.125 -0.6 4.125 -4 4.125 C-4 5.115 -4 6.105 -4 7.125 C-2.93458984 7.54072266 -2.93458984 7.54072266 -1.84765625 7.96484375 C-0.92855469 8.32707031 -0.00945313 8.68929687 0.9375 9.0625 C1.85402344 9.42214844 2.77054688 9.78179688 3.71484375 10.15234375 C6 11.125 6 11.125 7 12.125 C7.3125 14.5 7.3125 14.5 7 17.125 C5.5625 18.9375 5.5625 18.9375 3 20.125 C-0.01771016 20.3639237 -2.98006841 20.29922682 -6 20.125 C-6.66 18.805 -7.32 17.485 -8 16.125 C-7.30132813 16.1971875 -6.60265625 16.269375 -5.8828125 16.34375 C-4.51769531 16.48296875 -4.51769531 16.48296875 -3.125 16.625 C-1.76761719 16.76421875 -1.76761719 16.76421875 -0.3828125 16.90625 C1.93313211 17.15547295 1.93313211 17.15547295 4 17.125 C4 15.805 4 14.485 4 13.125 C3.28972656 12.92003906 2.57945312 12.71507812 1.84765625 12.50390625 C0.92855469 12.23449219 0.00945313 11.96507812 -0.9375 11.6875 C-1.85402344 11.42066406 -2.77054688 11.15382813 -3.71484375 10.87890625 C-6 10.125 -6 10.125 -7 9.125 C-6.94921875 7.3125 -6.94921875 7.3125 -6.6875 5.125 C-6.60886719 4.403125 -6.53023437 3.68125 -6.44921875 2.9375 C-6.30097656 2.339375 -6.15273438 1.74125 -6 1.125 C-3.75487738 0.00243869 -2.48543351 -0.00913762 0 0 Z " fill="#404040" transform="translate(772,674.875)"/>
<path d="M0 0 C1.11565962 3.34697886 0.94080131 3.87064302 -0.23168945 7.02490234 C-0.52562088 7.82938812 -0.81955231 8.6338739 -1.12239075 9.46273804 C-1.44938461 10.32839386 -1.77637848 11.19404968 -2.11328125 12.0859375 C-2.44289352 12.97987213 -2.7725058 13.87380676 -3.11210632 14.79483032 C-4.17028983 17.65816509 -5.24128916 20.51651675 -6.3125 23.375 C-7.0236167 25.29396337 -7.73391319 27.21323091 -8.44335938 29.1328125 C-13.4806799 42.73336304 -13.4806799 42.73336304 -15.20727539 46.94458008 C-16.08177834 49.21203936 -16.20694088 50.89524393 -16.125 53.3125 C-16.08375 54.529375 -16.0425 55.74625 -16 57 C-18.50037734 54.82575883 -19.43628586 53.26954202 -20 50 C-19.34 50 -18.68 50 -18 50 C-17.89042969 49.3709375 -17.78085937 48.741875 -17.66796875 48.09375 C-16.62660709 42.47209033 -15.18007577 37.28950655 -13 32 C-12.01776166 29.58452375 -11.03816154 27.16812796 -10.0625 24.75 C-9.80073975 24.10409912 -9.53897949 23.45819824 -9.26928711 22.79272461 C-7.26372734 17.79286098 -5.53720811 12.73774699 -3.95703125 7.5859375 C-2.93168376 4.81540674 -1.59089664 2.48269504 0 0 Z " fill="#777777" transform="translate(767,567)"/>
<path d="M0 0 C4.56122062 0.91655733 8.98800478 1.93718253 13.375 3.5 C22.32653887 6.57175857 31.60667206 7.37705679 41 8 C41 8.33 41 8.66 41 9 C17.86332066 9.75963337 17.86332066 9.75963337 7.0625 7.1875 C6.00011108 6.9395166 6.00011108 6.9395166 4.91625977 6.68652344 C2.97265625 6.16796875 2.97265625 6.16796875 0 5 C-0.33 4.01 -0.66 3.02 -1 2 C-0.67 1.34 -0.34 0.68 0 0 Z " fill="#383838" transform="translate(331,625)"/>
<path d="M0 0 C8.54572328 -0.04657127 17.09139253 -0.08199411 25.6372118 -0.10362434 C29.60641308 -0.11401164 33.57552682 -0.12807714 37.54467773 -0.15087891 C41.38317906 -0.1727893 45.22159678 -0.18460652 49.06015587 -0.18975449 C50.51639813 -0.19341788 51.9726364 -0.20057041 53.42884254 -0.21146011 C70.36495745 -0.33294389 70.36495745 -0.33294389 78 2 C78.99 2.99 78.99 2.99 80 4 C79.01 4 78.02 4 77 4 C77 4.66 77 5.32 77 6 C76.35933594 5.79503906 75.71867187 5.59007812 75.05859375 5.37890625 C74.19363281 5.10949219 73.32867187 4.84007812 72.4375 4.5625 C71.59058594 4.29566406 70.74367188 4.02882813 69.87109375 3.75390625 C62.00989649 1.6896735 54.27558529 1.86965173 46.19140625 1.90234375 C44.85619663 1.90421167 43.52098631 1.9056338 42.18577576 1.90663147 C38.69237332 1.91042723 35.19901327 1.920232 31.70562744 1.93133545 C28.1325335 1.9416132 24.55943263 1.94614265 20.98632812 1.95117188 C13.99086814 1.96185725 6.99543611 1.97889785 0 2 C0 1.34 0 0.68 0 0 Z " fill="#4E4E4E" transform="translate(103,438)"/>
<path d="M0 0 C1.65 0 3.3 0 5 0 C3.1668733 5.99932374 0.92678249 11.44920563 -2 17 C-2.66 17 -3.32 17 -4 17 C-4.25523437 17.72574219 -4.51046875 18.45148437 -4.7734375 19.19921875 C-6.06801074 22.1552984 -7.60455104 24.30564666 -9.625 26.8125 C-10.25664063 27.60269531 -10.88828125 28.39289062 -11.5390625 29.20703125 C-12.02117188 29.79871094 -12.50328125 30.39039063 -13 31 C-14 28 -14 28 -12.85546875 25.51953125 C-12.30503906 24.62621094 -11.75460937 23.73289062 -11.1875 22.8125 C-10.37345703 21.46091797 -10.37345703 21.46091797 -9.54296875 20.08203125 C-9.03378906 19.39496094 -8.52460937 18.70789063 -8 18 C-7.34 18 -6.68 18 -6 18 C-5.81824219 17.45472656 -5.63648438 16.90945313 -5.44921875 16.34765625 C-3.6328125 10.8984375 -1.81640625 5.44921875 0 0 Z " fill="#383838" transform="translate(1017,569)"/>
<path d="M0 0 C0.66 0.66 1.32 1.32 2 2 C-0.64 1.67 -3.28 1.34 -6 1 C-6 1.66 -6 2.32 -6 3 C-6.72445312 2.86722656 -7.44890625 2.73445313 -8.1953125 2.59765625 C-9.16210938 2.42105469 -10.12890625 2.24445313 -11.125 2.0625 C-12.07632813 1.88847656 -13.02765625 1.71445312 -14.0078125 1.53515625 C-15.48894531 1.27025391 -15.48894531 1.27025391 -17 1 C-17.8765625 0.8246875 -18.753125 0.649375 -19.65625 0.46875 C-24.54789102 -0.21699407 -29.44257268 -0.36838512 -34.375 -0.5625 C-35.39722656 -0.60568359 -36.41945313 -0.64886719 -37.47265625 -0.69335938 C-39.98165288 -0.79887792 -42.49073943 -0.90099213 -45 -1 C-45 -1.33 -45 -1.66 -45 -2 C-30.79733266 -4.96486658 -13.9070245 -4.10247813 0 0 Z " fill="#4A4A4A" transform="translate(957,440)"/>
<path d="M0 0 C5.61 0 11.22 0 17 0 C17 0.99 17 1.98 17 3 C14.69 3 12.38 3 10 3 C10 8.61 10 14.22 10 20 C9.01 20 8.02 20 7 20 C7 14.39 7 8.78 7 3 C4.69 3 2.38 3 0 3 C0 2.01 0 1.02 0 0 Z " fill="#4D4D4D" transform="translate(410,675)"/>
<path d="M0 0 C1.32 0 2.64 0 4 0 C3.47732514 4.92061049 1.87026795 8.6135864 -0.625 12.8125 C-0.97965332 13.42053467 -1.33430664 14.02856934 -1.69970703 14.6550293 C-9.48154131 27.74077066 -9.48154131 27.74077066 -14 30 C-12.47410827 25.79391502 -10.34829183 22.07479767 -8.0625 18.25 C-4.9530712 12.94899843 -2.68382294 7.94290448 -1 2 C-0.67 1.34 -0.34 0.68 0 0 Z " fill="#464646" transform="translate(450,570)"/>
<path d="M0 0 C11.36734433 0.5052153 20.37879601 8.1641142 28 16 C34.26017417 22.91913988 39.47517748 31.46849885 39 41 C36.68911949 38.68911949 36.29260012 37.15358499 35.3125 34.0625 C30.70303053 21.11531369 23.00329274 11.86440673 10.75 5.625 C7.21340201 3.9502618 3.64472666 2.42330567 0 1 C0 0.67 0 0.34 0 0 Z " fill="#858585" transform="translate(551,439)"/>
<path d="M0 0 C3.63 0 7.26 0 11 0 C9.71937515 1.7074998 8.38232443 3.37373596 7 5 C6.34 5 5.68 5 5 5 C4.82984375 5.56847656 4.6596875 6.13695312 4.484375 6.72265625 C2.84932263 11.9322114 0.86690828 16.35363141 -2 21 C-2.33 21 -2.66 21 -3 21 C-2.29411026 13.94110263 -1.21786614 6.98795036 0 0 Z " fill="#575757" transform="translate(611,438)"/>
<path d="M0 0 C1.32 0 2.64 0 4 0 C4.86366822 1.78710586 5.71568594 3.5798465 6.5625 5.375 C7.27599609 6.87160156 7.27599609 6.87160156 8.00390625 8.3984375 C8.33261719 9.25695312 8.66132813 10.11546875 9 11 C8 13 8 13 7 14 C5.48071962 14.07179964 3.95832518 14.08392007 2.4375 14.0625 C1.61121094 14.05347656 0.78492188 14.04445313 -0.06640625 14.03515625 C-0.70449219 14.02355469 -1.34257812 14.01195312 -2 14 C-1.32829194 10.1936543 -0.27253436 6.64793184 1 3 C1.66 3 2.32 3 3 3 C3 2.34 3 1.68 3 1 C1.02 1.99 1.02 1.99 -1 3 C-0.67 2.01 -0.34 1.02 0 0 Z " fill="#454545" transform="translate(398,675)"/>
<path d="M0 0 C10.77208089 -0.26166998 20.90710073 -0.27421713 31 4 C30.34 5.32 29.68 6.64 29 8 C25.79106816 8 23.95509006 7.09385246 21.07763672 5.80615234 C17.20109217 4.3019984 13.13240567 3.60791122 9.0625 2.8125 C8.18787109 2.63525391 7.31324219 2.45800781 6.41210938 2.27539062 C4.2760917 1.8435182 2.13822467 1.42080945 0 1 C0 0.67 0 0.34 0 0 Z " fill="#404040" transform="translate(364,438)"/>
<path d="M0 0 C-0.66 0.474375 -1.32 0.94875 -2 1.4375 C-2.66 1.953125 -3.32 2.46875 -4 3 C-4 3.33 -4 3.66 -4 4 C-7.26974947 4.36469424 -10.54088914 4.71493339 -13.8125 5.0625 C-14.74126953 5.16626953 -15.67003906 5.27003906 -16.62695312 5.37695312 C-17.9659668 5.51713867 -17.9659668 5.51713867 -19.33203125 5.66015625 C-20.15421143 5.74918213 -20.9763916 5.83820801 -21.82348633 5.92993164 C-24 6 -24 6 -27 5 C-29.51054905 4.8470353 -31.99888525 4.74304822 -34.51171875 4.68359375 C-35.23994339 4.66281265 -35.96816803 4.64203156 -36.71846008 4.62062073 C-39.04137875 4.55531254 -41.36440906 4.49632763 -43.6875 4.4375 C-45.26368335 4.39429695 -46.83985548 4.35068208 -48.41601562 4.30664062 C-52.27722975 4.1996504 -56.13855603 4.09833039 -60 4 C-60 3.67 -60 3.34 -60 3 C-59.42085846 2.99413376 -58.84171692 2.98826752 -58.24502563 2.98222351 C-52.17687481 2.91792163 -46.10923642 2.83341042 -40.04150391 2.73754883 C-37.78180733 2.70444623 -35.52203099 2.67636941 -33.26220703 2.65356445 C-29.9999821 2.61974783 -26.73847861 2.56741884 -23.4765625 2.51171875 C-22.47823395 2.50532883 -21.4799054 2.4989389 -20.45132446 2.49235535 C-14.53979315 2.37049655 -9.55957798 1.52811606 -3.9793396 -0.45939636 C-2 -1 -2 -1 0 0 Z " fill="#7D7D7D" transform="translate(180,533)"/>
<path d="M0 0 C2.375 -0.125 2.375 -0.125 5 0 C7 2 7 2 7.25 4.375 C6.99345272 7.06874642 6.36770587 8.69199635 5 11 C5.66 11.61875 6.32 12.2375 7 12.875 C9 15 9 15 9 17 C8.01 17 7.02 17 6 17 C3.8125 14.5 3.8125 14.5 2 12 C-1.26954202 12.56371414 -2.82575883 13.49962266 -5 16 C-4.125 11.125 -4.125 11.125 -3 10 C-2.63239269 7.67182036 -2.29758419 5.3381615 -2 3 C-1.01 4.485 -1.01 4.485 0 6 C0.99 6 1.98 6 3 6 C3.33 4.68 3.66 3.36 4 2 C2.68 2 1.36 2 0 2 C0 1.34 0 0.68 0 0 Z " fill="#3A3A3A" transform="translate(598,675)"/>
<path d="M0 0 C3.3 0 6.6 0 10 0 C10 2 10 2 7.625 4.5 C6.325625 5.7375 6.325625 5.7375 5 7 C2.92191323 9.07808677 2.4694445 10.15929047 1.5625 12.875 C0.44092906 16.02226539 -0.77424377 18.4562786 -3 21 C-3.14157065 17.95623095 -3.24552422 15.58925814 -2.0625 12.75 C-0.45084634 8.5786611 -0.35594129 4.44926614 0 0 Z " fill="#383838" transform="translate(811,438)"/>
<path d="M0 0 C5.28 0 10.56 0 16 0 C16 0.99 16 1.98 16 3 C13.69 3 11.38 3 9 3 C9 8.61 9 14.22 9 20 C8.34 20 7.68 20 7 20 C7 14.39 7 8.78 7 3 C4.69 3 2.38 3 0 3 C0 2.01 0 1.02 0 0 Z " fill="#404040" transform="translate(489,675)"/>
<path d="M0 0 C6.0546875 -0.1953125 6.0546875 -0.1953125 8 0 C10 2 10 2 10.125 4.625 C10.08375 5.40875 10.0425 6.1925 10 7 C6.5980513 9.09350689 3.94727588 9.17942163 0 9 C0 6.03 0 3.06 0 0 Z " fill="#DEDEDE" transform="translate(349,678)"/>
<path d="M0 0 C1.32 0 2.64 0 4 0 C4 6.6 4 13.2 4 20 C2.68 20 1.36 20 0 20 C0 13.4 0 6.8 0 0 Z " fill="#616161" transform="translate(366,675)"/>
<path d="M0 0 C0.99 0 1.98 0 3 0 C3 5.94 3 11.88 3 18 C6.3 18 9.6 18 13 18 C13 18.66 13 19.32 13 20 C8.71 20 4.42 20 0 20 C0 13.4 0 6.8 0 0 Z " fill="#424242" transform="translate(689,675)"/>
<path d="M0 0 C0.99 0 1.98 0 3 0 C3 5.94 3 11.88 3 18 C6.3 18 9.6 18 13 18 C13 18.66 13 19.32 13 20 C8.71 20 4.42 20 0 20 C0 13.4 0 6.8 0 0 Z " fill="#424242" transform="translate(672,675)"/>
<path d="M0 0 C0.99 0.33 1.98 0.66 3 1 C2.31035156 1.3403125 1.62070312 1.680625 0.91015625 2.03125 C-9.69209484 7.49962642 -18.18389071 14.38906251 -24 25 C-25.0136693 28.7223266 -24.96174322 31.25988749 -24 35 C-24.66 34.67 -25.32 34.34 -26 34 C-26.6328125 31.93359375 -26.6328125 31.93359375 -27.125 29.4375 C-27.29257812 28.61121094 -27.46015625 27.78492188 -27.6328125 26.93359375 C-27.81457031 25.97646484 -27.81457031 25.97646484 -28 25 C-27.34 25 -26.68 25 -26 25 C-25.77183594 24.29617188 -25.54367187 23.59234375 -25.30859375 22.8671875 C-23.73928597 19.42876388 -21.6015402 16.87096736 -19.0625 14.125 C-18.58176025 13.60123779 -18.10102051 13.07747559 -17.60571289 12.5378418 C-12.50170996 7.17370952 -6.61151285 3.30575642 0 0 Z " fill="#B1B1B1" transform="translate(519,441)"/>
<path d="M0 0 C0.33 0 0.66 0 1 0 C1 4.62 1 9.24 1 14 C6.445 13.505 6.445 13.505 12 13 C12.33 10.03 12.66 7.06 13 4 C13.33 4 13.66 4 14 4 C14 5.65 14 7.3 14 9 C14.66 9 15.32 9 16 9 C16 7.35 16 5.7 16 4 C16.33 4 16.66 4 17 4 C17.11569612 11.73511196 17.11569612 11.73511196 14.65625 14.5234375 C11.28167054 16.68623615 8.60289751 17.23537559 4.625 16.8125 C1 16 1 16 0 15 C-0.07313567 12.46950598 -0.09247527 9.96695163 -0.0625 7.4375 C-0.05798828 6.72658203 -0.05347656 6.01566406 -0.04882812 5.28320312 C-0.03700864 3.52209987 -0.01907263 1.76103964 0 0 Z " fill="#636363" transform="translate(533,678)"/>
<path d="M0 0 C0 0.66 0 1.32 0 2 C-0.6084375 1.855625 -1.216875 1.71125 -1.84375 1.5625 C-12.77848422 -0.75309078 -24.49330273 -1.65922011 -35.08203125 2.44140625 C-37 3 -37 3 -40 2 C-26.08533359 -3.32322648 -14.38204295 -4.75626617 0 0 Z " fill="#9C9C9C" transform="translate(757,440)"/>
<path d="M0 0 C0 4.0998287 -2.08545271 6.4767584 -4.3125 9.75 C-7.44530116 14.3667596 -9.94119572 18.80301832 -12 24 C-12.66 23.34 -13.32 22.68 -14 22 C-14.66 22.33 -15.32 22.66 -16 23 C-14.50736579 18.72164739 -12.2727041 15.18338171 -9.6875 11.5 C-9.30916016 10.94441406 -8.93082031 10.38882812 -8.54101562 9.81640625 C-5.98072603 6.13409465 -3.23631768 3.0702058 0 0 Z " fill="#565656" transform="translate(857,468)"/>
<path d="M0 0 C2 3 2 3 1.9375 6.4375 C1 10 1 10 -1.0625 12.4375 C-4.85535753 14.45497741 -7.78946064 14.85738806 -12 14 C-15 12.1875 -15 12.1875 -17 10 C-17 9.01 -17 8.02 -17 7 C-14.53199953 8.15173355 -12.95216435 9.04783565 -11 11 C-7.67688805 10.81873935 -5.01271908 10.60763145 -2.125 8.875 C-0.43357789 6.05596316 -0.30473851 3.23022817 0 0 Z " fill="#363636" transform="translate(580,681)"/>
<path d="M0 0 C0.99 0 1.98 0 3 0 C1.63125844 6.95776959 -0.4533129 13.38603107 -3 20 C-4.32 20 -5.64 20 -7 20 C-7 18.68 -7 17.36 -7 16 C-6.01 16 -5.02 16 -4 16 C-4.0825 15.030625 -4.165 14.06125 -4.25 13.0625 C-4.28994907 8.18871287 -2.16626615 4.26483649 0 0 Z " fill="#5A5A5A" transform="translate(646,675)"/>
<path d="M0 0 C4.67783042 0.06940629 9.35481152 0.15762051 14.03198242 0.26245117 C15.61945078 0.29547979 17.20703035 0.32357869 18.79467773 0.34643555 C27.29393921 0.47209308 35.05621509 0.59812655 43 4 C42.01 5.32 41.02 6.64 40 8 C39.45730469 7.72285156 38.91460937 7.44570313 38.35546875 7.16015625 C37.28232422 6.61681641 37.28232422 6.61681641 36.1875 6.0625 C35.47980469 5.70285156 34.77210938 5.34320312 34.04296875 4.97265625 C30.0469689 3.07016301 26.74941037 2.81766757 22.36328125 2.68359375 C20.41518555 2.62075195 20.41518555 2.62075195 18.42773438 2.55664062 C17.05599239 2.51683013 15.68424756 2.47711784 14.3125 2.4375 C12.92902355 2.39429165 11.54555973 2.35067661 10.16210938 2.30664062 C6.77484281 2.20041972 3.38750201 2.09837642 0 2 C0 1.34 0 0.68 0 0 Z " fill="#525252" transform="translate(119,536)"/>
<path d="M0 0 C0.99 0 1.98 0 3 0 C3 6.6 3 13.2 3 20 C2.01 20 1.02 20 0 20 C0 13.4 0 6.8 0 0 Z " fill="#4C4C4C" transform="translate(554,675)"/>
<path d="M0 0 C1.98 0 3.96 0 6 0 C4.68 0.33 3.36 0.66 2 1 C2 4.3 2 7.6 2 11 C4.97 11 7.94 11 11 11 C10.67 11.66 10.34 12.32 10 13 C7.36 13 4.72 13 2 13 C2 14.98 2 16.96 2 19 C1.34 19 0.68 19 0 19 C0 12.73 0 6.46 0 0 Z " fill="#353535" transform="translate(347,676)"/>
<path d="M0 0 C0.66 0 1.32 0 2 0 C2 5.61 2 11.22 2 17 C5.3 17 8.6 17 12 17 C12 17.66 12 18.32 12 19 C8.04 19 4.08 19 0 19 C0 12.73 0 6.46 0 0 Z " fill="#2A2A2A" transform="translate(376,676)"/>
<path d="M0 0 C0.66 0.33 1.32 0.66 2 1 C2 1.99 2 2.98 2 4 C-1.3 4 -4.6 4 -8 4 C-8 4.99 -8 5.98 -8 7 C-7.34 7.66 -6.68 8.32 -6 9 C-7.875 9.625 -7.875 9.625 -10 10 C-12 8 -12 8 -12.375 5.5625 C-12 3 -12 3 -10.5 1.1875 C-6.82968061 -0.55590171 -4.05176567 -0.26140424 0 0 Z " fill="#565656" transform="translate(459,675)"/>
<path d="M0 0 C3.3 0 6.6 0 10 0 C10 0.33 10 0.66 10 1 C7.69 1.33 5.38 1.66 3 2 C3 6.95 3 11.9 3 17 C4.98 17.33 6.96 17.66 9 18 C9 18.33 9 18.66 9 19 C6.03 19 3.06 19 0 19 C0 12.73 0 6.46 0 0 Z " fill="#282828" transform="translate(531,676)"/>
<path d="M0 0 C0.66 0.33 1.32 0.66 2 1 C1.20335937 1.67804688 0.40671875 2.35609375 -0.4140625 3.0546875 C-7.01223408 8.80235414 -11.9265046 14.14606642 -16 22 C-16.66 22.99 -17.32 23.98 -18 25 C-18 24.01 -18 23.02 -18 22 C-18.66 22 -19.32 22 -20 22 C-19.67 20.68 -19.34 19.36 -19 18 C-19 18.66 -19 19.32 -19 20 C-18.34 20 -17.68 20 -17 20 C-16.75765625 19.278125 -16.5153125 18.55625 -16.265625 17.8125 C-13.02628632 10.61396959 -6.1878493 4.75988408 0 0 Z " fill="#B2B2B2" transform="translate(710,446)"/>
<path d="M0 0 C2.05078125 0.03255208 4.1015625 0.06510417 6.15234375 0.09765625 C6.15234375 0.75765625 6.15234375 1.41765625 6.15234375 2.09765625 C6.81234375 2.42765625 7.47234375 2.75765625 8.15234375 3.09765625 C7.49234375 4.41765625 6.83234375 5.73765625 6.15234375 7.09765625 C3.51234375 6.43765625 0.87234375 5.77765625 -1.84765625 5.09765625 C-2.17765625 3.77765625 -2.50765625 2.45765625 -2.84765625 1.09765625 C-1.84765625 0.09765625 -1.84765625 0.09765625 0 0 Z " fill="#E0E0E0" transform="translate(769.84765625,677.90234375)"/>
<path d="M0 0 C2.475 0.99 2.475 0.99 5 2 C5.125 4.375 5.125 4.375 5 7 C3 9 3 9 0.94140625 9.23046875 C0.15636719 9.21628906 -0.62867188 9.20210937 -1.4375 9.1875 C-2.61119141 9.17783203 -2.61119141 9.17783203 -3.80859375 9.16796875 C-6 9 -6 9 -9 8 C-9 7.01 -9 6.02 -9 5 C-5.7 5.33 -2.4 5.66 1 6 C0.67 4.02 0.34 2.04 0 0 Z " fill="#434343" transform="translate(482,686)"/>
<path d="M0 0 C0.99 0 1.98 0 3 0 C3.33 1.65 3.66 3.3 4 5 C3.34 5 2.68 5 2 5 C2 9.95 2 14.9 2 20 C1.34 20 0.68 20 0 20 C0 13.4 0 6.8 0 0 Z " fill="#404040" transform="translate(706,675)"/>
<path d="M0 0 C0.33 0 0.66 0 1 0 C0.42381249 5.14595054 -0.74743278 9.55078055 -2.5625 14.4375 C-3.01753906 15.67371094 -3.47257813 16.90992188 -3.94140625 18.18359375 C-4.29074219 19.11300781 -4.64007812 20.04242187 -5 21 C-5.99 21 -6.98 21 -8 21 C-5.97565711 13.65408906 -3.40716556 6.81433112 0 0 Z " fill="#858585" transform="translate(585,518)"/>
<path d="M0 0 C1.85546875 0.16015625 1.85546875 0.16015625 4 1 C5.30078125 3.43359375 5.30078125 3.43359375 6.3125 6.4375 C6.83263672 7.92056641 6.83263672 7.92056641 7.36328125 9.43359375 C8 12 8 12 7 14 C6 13 5 12 4 11 C3.46375 10.608125 2.9275 10.21625 2.375 9.8125 C0.12599975 6.84790877 0.30002783 3.6603395 0 0 Z " fill="#6C6C6C" transform="translate(619,675)"/>
<path d="M0 0 C3.25061904 0.43341587 4.95502089 1.44377611 7 4 C7 4.66 7 5.32 7 6 C4.6739143 6.38063221 2.33944736 6.71269945 0 7 C-1 6 -1 6 -1.125 3.5 C-1 1 -1 1 0 0 Z " fill="#D6D6D6" transform="translate(597,686)"/>
<path d="M0 0 C3.63 0 7.26 0 11 0 C10.01 0.33 9.02 0.66 8 1 C8 2.32 8 3.64 8 5 C5.36 5 2.72 5 0 5 C0 3.35 0 1.7 0 0 Z " fill="#EAEAEA" transform="translate(433,678)"/>
<path d="M0 0 C0.90621094 0.20496094 1.81242188 0.40992188 2.74609375 0.62109375 C9.50058595 2.11494441 16.10659397 3.40574086 23 4 C23 4.33 23 4.66 23 5 C14.3725342 5.20705918 6.40371809 5.21462689 -2 3 C-1.34 2.01 -0.68 1.02 0 0 Z " fill="#585858" transform="translate(232,629)"/>
<path d="M0 0 C0.66 0 1.32 0 2 0 C2 0.66 2 1.32 2 2 C2.66 2 3.32 2 4 2 C4.33 3.65 4.66 5.3 5 7 C2.36 7 -0.28 7 -3 7 C-2.38722388 4.03824877 -1.74627478 2.61941217 0 0 Z " fill="#CFCFCF" transform="translate(399,681)"/>
<path d="M0 0 C2.31 0 4.62 0 7 0 C7 5.61 7 11.22 7 17 C6.01 16.67 5.02 16.34 4 16 C4.33 11.05 4.66 6.1 5 1 C3.35 1 1.7 1 0 1 C0 0.67 0 0.34 0 0 Z " fill="#C1C1C1" transform="translate(489,678)"/>
<path d="M0 0 C0.21192221 5.19209404 -0.4087311 9.126739 -2 14 C-2.33 14 -2.66 14 -3 14 C-3.33 12.35 -3.66 10.7 -4 9 C-4.99 9.495 -4.99 9.495 -6 10 C-3.54716981 0 -3.54716981 0 0 0 Z " fill="#4A4A4A" transform="translate(277,489)"/>
<path d="M0 0 C2.375 -0.125 2.375 -0.125 5 0 C7 2 7 2 7.375 4.375 C6.89262388 7.75163282 5.55541504 8.84386856 3 11 C3 10.01 3 9.02 3 8 C2.34 7.67 1.68 7.34 1 7 C1.66 6.67 2.32 6.34 3 6 C3.65213292 3.97536745 3.65213292 3.97536745 4 2 C2.68 2 1.36 2 0 2 C0 1.34 0 0.68 0 0 Z " fill="#585858" transform="translate(598,675)"/>
<path d="M0 0 C8.55777738 0.38034566 16.23550491 4.7765053 22 11 C18.46456714 11 17.72486927 10.29373355 14.9375 8.25 C10.22605398 4.97988451 5.38570874 2.91142064 0 1 C0 0.67 0 0.34 0 0 Z " fill="#8F8F8F" transform="translate(551,439)"/>
<path d="M0 0 C3.08659618 3.08659618 2.86534623 6.82573318 3 11 C2.80105199 14.68527499 2.44506125 18.33680357 2 22 C1.67 22 1.34 22 1 22 C0.90912109 20.35451172 0.90912109 20.35451172 0.81640625 18.67578125 C0.73195502 17.22134346 0.64730934 15.76691695 0.5625 14.3125 C0.52318359 13.59126953 0.48386719 12.87003906 0.44335938 12.12695312 C0.259121 9.02324511 0.01961313 6.09704011 -0.59765625 3.04296875 C-0.73042969 2.36878906 -0.86320313 1.69460938 -1 1 C-0.67 0.67 -0.34 0.34 0 0 Z " fill="#939393" transform="translate(788,472)"/>
<path d="M0 0 C1.65 0 3.3 0 5 0 C4.50769231 5.53846154 4.50769231 5.53846154 1.9375 7.875 C0.9784375 8.431875 0.9784375 8.431875 0 9 C0 6.03 0 3.06 0 0 Z " fill="#252525" transform="translate(612,439)"/>
<path d="M0 0 C1.21816406 0.03480469 1.21816406 0.03480469 2.4609375 0.0703125 C3.68683594 0.09738281 3.68683594 0.09738281 4.9375 0.125 C5.87722656 0.15980469 5.87722656 0.15980469 6.8359375 0.1953125 C7.1659375 1.1853125 7.4959375 2.1753125 7.8359375 3.1953125 C6.21269664 3.41693579 4.5872165 3.62221053 2.9609375 3.8203125 C1.60355469 3.99433594 1.60355469 3.99433594 0.21875 4.171875 C-0.56757812 4.17960938 -1.35390625 4.18734375 -2.1640625 4.1953125 C-2.8240625 3.5353125 -3.4840625 2.8753125 -4.1640625 2.1953125 C-2.1640625 0.1953125 -2.1640625 0.1953125 0 0 Z " fill="#525252" transform="translate(752.1640625,674.8046875)"/>
<path d="M0 0 C0.33 0 0.66 0 1 0 C1.33 1.98 1.66 3.96 2 6 C-1.14341993 7.57170996 -4.55771451 7.23175783 -8 7 C-8.99 6.67 -9.98 6.34 -11 6 C-11 5.01 -11 4.02 -11 3 C-10.01 3.33 -9.02 3.66 -8 4 C-5.66700175 4.03954234 -3.33291811 4.04401732 -1 4 C-0.67 2.68 -0.34 1.36 0 0 Z " fill="#454545" transform="translate(758,688)"/>
<path d="M0 0 C1.051875 -0.00386719 1.051875 -0.00386719 2.125 -0.0078125 C4 0.125 4 0.125 6 1.125 C6 2.115 6 3.105 6 4.125 C4.37419034 4.01101335 2.74932843 3.88344341 1.125 3.75 C0.22007812 3.68039062 -0.68484375 3.61078125 -1.6171875 3.5390625 C-4 3.125 -4 3.125 -6 1.125 C-3.75487738 0.00243869 -2.48543351 -0.00913762 0 0 Z " fill="#565656" transform="translate(772,674.875)"/>
<path d="M0 0 C4.62 0 9.24 0 14 0 C12 4 12 4 10 5 C7.6171875 4.22265625 7.6171875 4.22265625 4.875 3.0625 C3.50988281 2.49208984 3.50988281 2.49208984 2.1171875 1.91015625 C1.41851562 1.60980469 0.71984375 1.30945313 0 1 C0 0.67 0 0.34 0 0 Z " fill="#DCDCDC" transform="translate(156,538)"/>
<path d="M0 0 C8.57142857 0.85714286 8.57142857 0.85714286 12 3 C11.67 3.66 11.34 4.32 11 5 C7.0507432 4.44894091 3.65079826 3.61064629 0 2 C0 1.34 0 0.68 0 0 Z " fill="#282828" transform="translate(380,440)"/>
<path d="M0 0 C2.00720923 0.28674418 4.0085944 0.61866701 6 1 C5.67 2.65 5.34 4.3 5 6 C4.38125 5.814375 3.7625 5.62875 3.125 5.4375 C0.95839822 4.76313824 0.95839822 4.76313824 -1 6 C-1.042721 4.33388095 -1.04063832 2.66617115 -1 1 C-0.67 0.67 -0.34 0.34 0 0 Z " fill="#A4A4A4" transform="translate(596,676)"/>
<path d="M0 0 C0.66 1.32 1.32 2.64 2 4 C-0.31 6.97 -2.62 9.94 -5 13 C-6 10 -6 10 -4.78515625 7.51953125 C-4.21667969 6.62621094 -3.64820313 5.73289062 -3.0625 4.8125 C-2.49660156 3.91144531 -1.93070313 3.01039063 -1.34765625 2.08203125 C-0.90292969 1.39496094 -0.45820312 0.70789063 0 0 Z " fill="#5C5C5C" transform="translate(1009,587)"/>
<path d="M0 0 C4.00055301 3.66717359 6.66825595 7.06746451 9 12 C8.6015625 14.21484375 8.6015625 14.21484375 8 16 C6.66141476 13.71125827 5.32898986 11.41930344 4 9.125 C3.6184375 8.47402344 3.236875 7.82304687 2.84375 7.15234375 C0 2.2265625 0 2.2265625 0 0 Z " fill="#848484" transform="translate(779,457)"/>
<path d="M0 0 C3.16115776 1.36983503 3.9927092 1.9890638 6 5 C6.125 8.1875 6.125 8.1875 6 11 C5.34 9.68 4.68 8.36 4 7 C3.34 8.32 2.68 9.64 2 11 C1.87625 9.906875 1.7525 8.81375 1.625 7.6875 C1.24535199 3.92618198 1.24535199 3.92618198 -1 1 C-0.67 0.67 -0.34 0.34 0 0 Z " fill="#646464" transform="translate(577,677)"/>
<path d="M0 0 C2.97 1.65 5.94 3.3 9 5 C9 5.33 9 5.66 9 6 C4.53160785 6.21278058 1.17737474 5.59138085 -3 4 C-2.01 3.67 -1.02 3.34 0 3 C0 2.01 0 1.02 0 0 Z " fill="#383838" transform="translate(224,625)"/>
<path d="M0 0 C1.37095624 3.69037278 0.60010967 5.70883835 -0.9375 9.25 C-1.31777344 10.14203125 -1.69804688 11.0340625 -2.08984375 11.953125 C-2.39019531 12.62859375 -2.69054687 13.3040625 -3 14 C-3.66 14 -4.32 14 -5 14 C-4.03603575 8.79459302 -3.12319499 4.40086567 0 0 Z " fill="#787878" transform="translate(777,540)"/>
<path d="M0 0 C1.813713 0.64241894 3.62594124 1.28903119 5.4375 1.9375 C6.44683594 2.29714844 7.45617187 2.65679688 8.49609375 3.02734375 C11 4 11 4 12 5 C12.04063832 6.66617115 12.042721 8.33388095 12 10 C11.77570313 9.36578125 11.55140625 8.7315625 11.3203125 8.078125 C10.16214243 5.77983843 10.16214243 5.77983843 7.6171875 5.171875 C6.71226562 5.03265625 5.80734375 4.8934375 4.875 4.75 C3.96492188 4.60046875 3.05484375 4.4509375 2.1171875 4.296875 C1.41851562 4.19890625 0.71984375 4.1009375 0 4 C0 2.68 0 1.36 0 0 Z " fill="#5D5D5D" transform="translate(476,682)"/>
<path d="M0 0 C0.66 0 1.32 0 2 0 C1.896875 0.763125 1.79375 1.52625 1.6875 2.3125 C1.790625 3.199375 1.89375 4.08625 2 5 C4.42672567 6.78969026 4.42672567 6.78969026 7 8 C7 8.33 7 8.66 7 9 C0.125 8.125 0.125 8.125 -1 7 C-0.71269945 4.66055264 -0.38063221 2.3260857 0 0 Z " fill="#363636" transform="translate(766,677)"/>
<path d="M0 0 C4.82360189 -0.19294408 8.49646738 0.24252386 13 2 C9.71023192 3.09658936 8.28696233 2.79953138 5 2 C5 2.66 5 3.32 5 4 C2.03 3.505 2.03 3.505 -1 3 C-0.67 2.01 -0.34 1.02 0 0 Z " fill="#494949" transform="translate(946,439)"/>
<path d="M0 0 C0.33 0 0.66 0 1 0 C1 6.27 1 12.54 1 19 C-0.32 18.01 -1.64 17.02 -3 16 C-3 15.34 -3 14.68 -3 14 C-2.01 14 -1.02 14 0 14 C0 9.38 0 4.76 0 0 Z " fill="#252525" transform="translate(721,676)"/>
<path d="M0 0 C1.24592785 3.73778355 0.54425229 4.9910133 -0.8125 8.625 C-1.16957031 9.60726562 -1.52664063 10.58953125 -1.89453125 11.6015625 C-3 14 -3 14 -5 15 C-3.25740319 4.44191344 -3.25740319 4.44191344 0 0 Z " fill="#6F6F6F" transform="translate(767,567)"/>
<path d="M0 0 C0.66 0 1.32 0 2 0 C2.33 1.32 2.66 2.64 3 4 C-1.1205746 5.99785435 -4.45194365 6.17835515 -9 6 C-6 4 -6 4 -3 3 C-2.484375 2.484375 -1.96875 1.96875 -1.4375 1.4375 C-0.963125 0.963125 -0.48875 0.48875 0 0 Z " fill="#393939" transform="translate(182,530)"/>
<path d="M0 0 C3 3.625 3 3.625 3 7 C3.99 7 4.98 7 6 7 C6 8.32 6 9.64 6 11 C5.01 11 4.02 11 3 11 C0.84694043 7.14243493 -0.39253254 4.44870215 0 0 Z " fill="#323232" transform="translate(623,684)"/>
<path d="M0 0 C2.64 0 5.28 0 8 0 C8.33 0.99 8.66 1.98 9 3 C5.7 3 2.4 3 -1 3 C-0.67 2.01 -0.34 1.02 0 0 Z " fill="#494949" transform="translate(568,675)"/>
<path d="M0 0 C0.99 0 1.98 0 3 0 C2.95875 0.78375 2.9175 1.5675 2.875 2.375 C2.71271266 5.16116119 2.71271266 5.16116119 5 7 C3.125 7.625 3.125 7.625 1 8 C-1 6 -1 6 -1.1875 3.4375 C-1 1 -1 1 0 0 Z " fill="#4D4D4D" transform="translate(448,677)"/>
<path d="M0 0 C0.66 0.66 1.32 1.32 2 2 C1.484375 2.66 0.96875 3.32 0.4375 4 C-1.54941167 8.14659826 -0.83335149 10.53020565 0 15 C-0.66 14.67 -1.32 14.34 -2 14 C-2.6328125 11.93359375 -2.6328125 11.93359375 -3.125 9.4375 C-3.29257812 8.61121094 -3.46015625 7.78492188 -3.6328125 6.93359375 C-3.75398438 6.29550781 -3.87515625 5.65742188 -4 5 C-3.34 5 -2.68 5 -2 5 C-1.34 3.35 -0.68 1.7 0 0 Z " fill="#9E9E9E" transform="translate(495,461)"/>
<path d="M0 0 C1.32 0 2.64 0 4 0 C4.66 1.98 5.32 3.96 6 6 C5.01 6.66 4.02 7.32 3 8 C3 7.34 3 6.68 3 6 C2.34 6 1.68 6 1 6 C1 5.01 1 4.02 1 3 C1.66 3 2.32 3 3 3 C3 2.34 3 1.68 3 1 C1.02 1.99 1.02 1.99 -1 3 C-0.67 2.01 -0.34 1.02 0 0 Z " fill="#757575" transform="translate(398,675)"/>
<path d="M0 0 C0.99 0.99 1.98 1.98 3 3 C1.80100302 6.0831351 0.52299523 9.06279492 -1 12 C-1.33 12 -1.66 12 -2 12 C-1.85831863 10.56208484 -1.71148957 9.1246763 -1.5625 7.6875 C-1.48128906 6.88699219 -1.40007813 6.08648437 -1.31640625 5.26171875 C-1 3 -1 3 0 0 Z " fill="#828282" transform="translate(610,447)"/>
<path d="M0 0 C0.99 0.33 1.98 0.66 3 1 C1.84414715 4.91211733 0.64465038 7.8745041 -2 11 C-2.19622241 6.78121808 -1.80230168 3.82989106 0 0 Z " fill="#777777" transform="translate(810,448)"/>
<path d="M0 0 C1.45792884 -0.05399736 2.91642712 -0.09279177 4.375 -0.125 C5.18710938 -0.14820313 5.99921875 -0.17140625 6.8359375 -0.1953125 C9 0 9 0 11 2 C10.01 2 9.02 2 8 2 C8 2.66 8 3.32 8 4 C5.64828869 3.40138258 3.3140622 2.73075648 1 2 C0.67 1.34 0.34 0.68 0 0 Z " fill="#474747" transform="translate(172,440)"/>
<path d="M0 0 C5.875 1.875 5.875 1.875 7 3 C7.04063832 4.66617115 7.042721 6.33388095 7 8 C6.01 7.67 5.02 7.34 4 7 C4 6.01 4 5.02 4 4 C2.68 3.34 1.36 2.68 0 2 C0 1.34 0 0.68 0 0 Z " fill="#4C4C4C" transform="translate(772,684)"/>
<path d="M0 0 C0.66 0.66 1.32 1.32 2 2 C-0.97 4.97 -3.94 7.94 -7 11 C-7.66 10.67 -8.32 10.34 -9 10 C-6.03 6.7 -3.06 3.4 0 0 Z " fill="#737373" transform="translate(435,599)"/>
<path d="M0 0 C0.99 0.66 1.98 1.32 3 2 C2.67 3.32 2.34 4.64 2 6 C1.34 6 0.68 6 0 6 C-0.33 6.99 -0.66 7.98 -1 9 C-1.66 9 -2.32 9 -3 9 C-2.01 6.03 -1.02 3.06 0 0 Z " fill="#454545" transform="translate(1013,580)"/>
<path d="M0 0 C0.33 0 0.66 0 1 0 C1.08159574 4.16138263 0.98248524 7.9472484 0 12 C-0.99 11.67 -1.98 11.34 -3 11 C-2.69217504 9.35328588 -2.37860766 7.70764424 -2.0625 6.0625 C-1.88847656 5.14597656 -1.71445312 4.22945313 -1.53515625 3.28515625 C-1 1 -1 1 0 0 Z " fill="#898989" transform="translate(788,504)"/>
<path d="M0 0 C0.66 0.66 1.32 1.32 2 2 C-2 4.66666667 -6 7.33333333 -10 10 C-10 9.01 -10 8.02 -10 7 C-7.8125 5.17578125 -7.8125 5.17578125 -5 3.3125 C-3.6078125 2.37857422 -3.6078125 2.37857422 -2.1875 1.42578125 C-1.1046875 0.72001953 -1.1046875 0.72001953 0 0 Z " fill="#7F7F7F" transform="translate(310,451)"/>
<path d="M0 0 C0.33 0 0.66 0 1 0 C1 1.65 1 3.3 1 5 C1.66 5 2.32 5 3 5 C3 3.35 3 1.7 3 0 C3.33 0 3.66 0 4 0 C3.67 2.97 3.34 5.94 3 9 C1.68 8.34 0.36 7.68 -1 7 C-0.67 4.69 -0.34 2.38 0 0 Z " fill="#717171" transform="translate(546,682)"/>
<path d="M0 0 C1.231394 2.46278801 1.07159196 4.2795055 1 7 C3.64 7.99 6.28 8.98 9 10 C5.06329512 11.31223496 2.87511856 10.24296256 -1 9 C-1.09765625 2.84765625 -1.09765625 2.84765625 -1 1 C-0.67 0.67 -0.34 0.34 0 0 Z " fill="#B7B7B7" transform="translate(765,677)"/>
<path d="M0 0 C0.66 0.66 1.32 1.32 2 2 C-0.64 4.64 -3.28 7.28 -6 10 C-6.66 9.67 -7.32 9.34 -8 9 C-5.36 6.03 -2.72 3.06 0 0 Z " fill="#767676" transform="translate(1002,599)"/>
<path d="M0 0 C0.66 0.66 1.32 1.32 2 2 C0.68 4.64 -0.64 7.28 -2 10 C-2.33 9.01 -2.66 8.02 -3 7 C-3.66 7 -4.32 7 -5 7 C-4.67 5.68 -4.34 4.36 -4 3 C-4 3.66 -4 4.32 -4 5 C-3.34 5 -2.68 5 -2 5 C-1.34 3.35 -0.68 1.7 0 0 Z " fill="#A3A3A3" transform="translate(695,461)"/>
<path d="M0 0 C0.99 0.33 1.98 0.66 3 1 C2.44271087 4.34373475 1.64826111 7.03312999 0 10 C-0.66 10 -1.32 10 -2 10 C-1.34 6.7 -0.68 3.4 0 0 Z " fill="#9F9F9F" transform="translate(586,510)"/>
<path d="M0 0 C0.99 0.33 1.98 0.66 3 1 C2.34 2.65 1.68 4.3 1 6 C-0.65 6 -2.3 6 -4 6 C-4 4 -4 4 -2 1.875 C-1.34 1.25625 -0.68 0.6375 0 0 Z " fill="#5A5A5A" transform="translate(392,689)"/>
<path d="M0 0 C2.01822917 0.06510417 4.03645833 0.13020833 6.0546875 0.1953125 C6.0546875 0.5253125 6.0546875 0.8553125 6.0546875 1.1953125 C4.3840625 1.5975 4.3840625 1.5975 2.6796875 2.0078125 C-1.16372201 2.85340269 -1.16372201 2.85340269 -2.9453125 6.1953125 C-3.6053125 6.1953125 -4.2653125 6.1953125 -4.9453125 6.1953125 C-3.78219775 0.37973873 -3.78219775 0.37973873 0 0 Z " fill="#D1D1D1" transform="translate(569.9453125,677.8046875)"/>
<path d="M0 0 C0.66 0.99 1.32 1.98 2 3 C0.02 5.31 -1.96 7.62 -4 10 C-4.33 9.34 -4.66 8.68 -5 8 C-4.00390625 6.0546875 -4.00390625 6.0546875 -2.5625 3.875 C-2.08941406 3.15054688 -1.61632812 2.42609375 -1.12890625 1.6796875 C-0.75636719 1.12539063 -0.38382812 0.57109375 0 0 Z " fill="#535353" transform="translate(441,590)"/>
<path d="M0 0 C1.32 0 2.64 0 4 0 C3.67 1.98 3.34 3.96 3 6 C1.68 5.34 0.36 4.68 -1 4 C-0.67 2.68 -0.34 1.36 0 0 Z " fill="#3D3D3D" transform="translate(450,570)"/>
<path d="M0 0 C0.33 0 0.66 0 1 0 C0.53199289 4.05606165 0.12046792 7.46588679 -2 11 C-2.95465783 8.83032311 -3.14401212 7.43671207 -2.3984375 5.17578125 C-1.64129615 3.4315257 -0.82390802 1.71372869 0 0 Z " fill="#777777" transform="translate(585,518)"/>
<path d="M0 0 C0.99 0 1.98 0 3 0 C3 1.98 3 3.96 3 6 C3.66 6.33 4.32 6.66 5 7 C1.125 6.125 1.125 6.125 0 5 C-0.04063832 3.33382885 -0.042721 1.66611905 0 0 Z " fill="#3D3D3D" transform="translate(473,678)"/>
<path d="M0 0 C0.99 0 1.98 0 3 0 C2.34 2.97 1.68 5.94 1 9 C-1 6 -1 6 -0.625 2.8125 C-0.41875 1.884375 -0.2125 0.95625 0 0 Z " fill="#595959" transform="translate(646,675)"/>
<path d="M0 0 C0 0.66 0 1.32 0 2 C-1.53125 3.5078125 -1.53125 3.5078125 -3.5 5.125 C-4.1496875 5.66382813 -4.799375 6.20265625 -5.46875 6.7578125 C-5.9740625 7.16773438 -6.479375 7.57765625 -7 8 C-7.66 7.67 -8.32 7.34 -9 7 C-8.07347299 5.82460004 -7.13336613 4.65989423 -6.1875 3.5 C-5.66542969 2.8503125 -5.14335937 2.200625 -4.60546875 1.53125 C-3 0 -3 0 0 0 Z " fill="#D2D2D2" transform="translate(212,515)"/>
<path d="M0 0 C0.66 0 1.32 0 2 0 C2 0.66 2 1.32 2 2 C1.34 2 0.68 2 0 2 C-0.33 3.98 -0.66 5.96 -1 8 C-1.99 7.67 -2.98 7.34 -4 7 C-2.92598892 4.08482708 -2.22189824 2.22189824 0 0 Z " fill="#484848" transform="translate(399,676)"/>
<path d="M0 0 C1.65 0 3.3 0 5 0 C4.34 1.65 3.68 3.3 3 5 C2.67 4.01 2.34 3.02 2 2 C1.34 2 0.68 2 0 2 C-0.33 2.99 -0.66 3.98 -1 5 C-0.67 3.35 -0.34 1.7 0 0 Z " fill="#6F6F6F" transform="translate(1017,569)"/>
<path d="M0 0 C3 3.625 3 3.625 3 7 C1.68 6.67 0.36 6.34 -1 6 C-0.67 4.02 -0.34 2.04 0 0 Z " fill="#5C5C5C" transform="translate(407,688)"/>
<path d="M0 0 C0.99 0.495 0.99 0.495 2 1 C2 1.66 2 2.32 2 3 C3.32 3.66 4.64 4.32 6 5 C5.34 5 4.68 5 4 5 C4.33 5.99 4.66 6.98 5 8 C4.34 8 3.68 8 3 8 C3 7.34 3 6.68 3 6 C2.34 6 1.68 6 1 6 C0.67 4.02 0.34 2.04 0 0 Z " fill="#C1C1C1" transform="translate(760,686)"/>
<path d="M0 0 C3.16115776 1.36983503 3.9927092 1.9890638 6 5 C5.01 5.33 4.02 5.66 3 6 C1.5 4.6875 1.5 4.6875 0 3 C0 2.01 0 1.02 0 0 Z " fill="#3E3E3E" transform="translate(563,688)"/>
<path d="M0 0 C2.88575819 0.39803561 3.82189513 0.79009069 5.75 3.0625 C6.1625 3.701875 6.575 4.34125 7 5 C5.68 5.33 4.36 5.66 3 6 C0 2.25 0 2.25 0 0 Z " fill="#424242" transform="translate(714,685)"/>
<path d="M0 0 C1.39195915 4.17587745 -0.17676781 6.13474776 -2 10 C-2.33 10 -2.66 10 -3 10 C-3.36629408 5.72656908 -2.40814077 3.51187196 0 0 Z " fill="#6F6F6F" transform="translate(559,589)"/>
<path d="M0 0 C0.66 0.33 1.32 0.66 2 1 C1.38722388 3.96175123 0.74627478 5.38058783 -1 8 C-1.93065133 5.39417629 -2.14917407 4.35801776 -1.0625 1.75 C-0.711875 1.1725 -0.36125 0.595 0 0 Z " fill="#848484" transform="translate(561,582)"/>
<path d="M0 0 C1.39195915 4.17587745 -0.17676781 6.13474776 -2 10 C-2.33 10 -2.66 10 -3 10 C-3.36629408 5.72656908 -2.40814077 3.51187196 0 0 Z " fill="#6F6F6F" transform="translate(572,554)"/>
<path d="M0 0 C0 1.65 0 3.3 0 5 C-1.32 5 -2.64 5 -4 5 C-4 3.68 -4 2.36 -4 1 C-1 0 -1 0 0 0 Z " fill="#343434" transform="translate(643,690)"/>
<path d="M0 0 C0.99 0 1.98 0 3 0 C3.66 1.32 4.32 2.64 5 4 C4.01 4.66 3.02 5.32 2 6 C1.34 5.34 0.68 4.68 0 4 C0 2.68 0 1.36 0 0 Z " fill="#6A6A6A" transform="translate(592,688)"/>
<path d="M0 0 C3.375 -0.125 3.375 -0.125 7 0 C7.66 0.66 8.32 1.32 9 2 C6.21176345 3.0326802 5.1322726 3.04509293 2.25 2.0625 C1.5075 1.711875 0.765 1.36125 0 1 C0 0.67 0 0.34 0 0 Z " fill="#3B3B3B" transform="translate(450,684)"/>
<path d="M0 0 C1.04449911 3.13349732 0.93423645 3.98968256 0 7 C-0.66 7 -1.32 7 -2 7 C-2.33 7.66 -2.66 8.32 -3 9 C-2.5020163 5.26512223 -2.12508244 3.18762365 0 0 Z " fill="#333333" transform="translate(396,682)"/>
<path d="M0 0 C0.99 0.66 1.98 1.32 3 2 C2.34 3.98 1.68 5.96 1 8 C0.01 7.01 -0.98 6.02 -2 5 C-1.34 3.35 -0.68 1.7 0 0 Z " fill="#656565" transform="translate(277,485)"/>
</svg>
